<svg xmlns="http://www.w3.org/2000/svg" xmlns:xlink="http://www.w3.org/1999/xlink" width="600" zoomAndPan="magnify" viewBox="0 0 450 149.999998" height="200" preserveAspectRatio="xMidYMid meet" version="1.0"><defs><filter x="0%" y="0%" width="100%" height="100%" id="91e6c4e2d2"><feColorMatrix values="0 0 0 0 1 0 0 0 0 1 0 0 0 0 1 0 0 0 1 0" color-interpolation-filters="sRGB"/></filter><g/><clipPath id="f9e24f16a4"><path d="M 0 0 L 450 0 L 450 150 L 0 150 Z M 0 0 " clip-rule="nonzero"/></clipPath><radialGradient gradientTransform="matrix(1.000256, 0, 0, 0.999744, -57.431184, -45.766138)" gradientUnits="userSpaceOnUse" r="234.211916" cx="275.907251" id="309480808f" cy="107.055439" fx="275.907251" fy="107.055439"><stop stop-opacity="1" stop-color="rgb(27.322388%, 47.314453%, 48.103333%)" offset="0"/><stop stop-opacity="1" stop-color="rgb(27.102661%, 47.077942%, 47.868347%)" offset="0.015625"/><stop stop-opacity="1" stop-color="rgb(26.914978%, 46.876526%, 47.665405%)" offset="0.0273438"/><stop stop-opacity="1" stop-color="rgb(26.725769%, 46.673584%, 47.463989%)" offset="0.0390625"/><stop stop-opacity="1" stop-color="rgb(26.538086%, 46.472168%, 47.261047%)" offset="0.0507812"/><stop stop-opacity="1" stop-color="rgb(26.348877%, 46.269226%, 47.059631%)" offset="0.0625"/><stop stop-opacity="1" stop-color="rgb(26.161194%, 46.06781%, 46.856689%)" offset="0.0742188"/><stop stop-opacity="1" stop-color="rgb(25.973511%, 45.864868%, 46.653748%)" offset="0.0859375"/><stop stop-opacity="1" stop-color="rgb(25.784302%, 45.663452%, 46.452332%)" offset="0.0976562"/><stop stop-opacity="1" stop-color="rgb(25.596619%, 45.46051%, 46.24939%)" offset="0.109375"/><stop stop-opacity="1" stop-color="rgb(25.40741%, 45.259094%, 46.047974%)" offset="0.121094"/><stop stop-opacity="1" stop-color="rgb(25.219727%, 45.056152%, 45.845032%)" offset="0.132812"/><stop stop-opacity="1" stop-color="rgb(25.030518%, 44.854736%, 45.643616%)" offset="0.144531"/><stop stop-opacity="1" stop-color="rgb(24.842834%, 44.651794%, 45.440674%)" offset="0.15625"/><stop stop-opacity="1" stop-color="rgb(24.653625%, 44.450378%, 45.239258%)" offset="0.167969"/><stop stop-opacity="1" stop-color="rgb(24.465942%, 44.247437%, 45.036316%)" offset="0.179688"/><stop stop-opacity="1" stop-color="rgb(24.276733%, 44.046021%, 44.833374%)" offset="0.191406"/><stop stop-opacity="1" stop-color="rgb(24.08905%, 43.844604%, 44.631958%)" offset="0.203125"/><stop stop-opacity="1" stop-color="rgb(23.899841%, 43.641663%, 44.429016%)" offset="0.214844"/><stop stop-opacity="1" stop-color="rgb(23.712158%, 43.440247%, 44.2276%)" offset="0.226562"/><stop stop-opacity="1" stop-color="rgb(23.522949%, 43.237305%, 44.024658%)" offset="0.238281"/><stop stop-opacity="1" stop-color="rgb(23.335266%, 43.035889%, 43.823242%)" offset="0.25"/><stop stop-opacity="1" stop-color="rgb(23.083496%, 42.765808%, 43.553162%)" offset="0.261719"/><stop stop-opacity="1" stop-color="rgb(22.769165%, 42.428589%, 43.215942%)" offset="0.28125"/><stop stop-opacity="1" stop-color="rgb(22.454834%, 42.09137%, 42.878723%)" offset="0.300781"/><stop stop-opacity="1" stop-color="rgb(22.142029%, 41.75415%, 42.541504%)" offset="0.320312"/><stop stop-opacity="1" stop-color="rgb(21.827698%, 41.418457%, 42.204285%)" offset="0.339844"/><stop stop-opacity="1" stop-color="rgb(21.513367%, 41.081238%, 41.867065%)" offset="0.359375"/><stop stop-opacity="1" stop-color="rgb(21.229553%, 40.777588%, 41.563416%)" offset="0.378906"/><stop stop-opacity="1" stop-color="rgb(20.979309%, 40.509033%, 41.294861%)" offset="0.394531"/><stop stop-opacity="1" stop-color="rgb(20.727539%, 40.238953%, 41.02478%)" offset="0.410156"/><stop stop-opacity="1" stop-color="rgb(20.477295%, 39.968872%, 40.7547%)" offset="0.425781"/><stop stop-opacity="1" stop-color="rgb(20.225525%, 39.700317%, 40.484619%)" offset="0.441406"/><stop stop-opacity="1" stop-color="rgb(19.973755%, 39.430237%, 40.216064%)" offset="0.457031"/><stop stop-opacity="1" stop-color="rgb(19.723511%, 39.160156%, 39.945984%)" offset="0.472656"/><stop stop-opacity="1" stop-color="rgb(19.471741%, 38.891602%, 39.675903%)" offset="0.488281"/><stop stop-opacity="1" stop-color="rgb(19.252014%, 38.65509%, 39.440918%)" offset="0.503906"/><stop stop-opacity="1" stop-color="rgb(19.062805%, 38.453674%, 39.237976%)" offset="0.515625"/><stop stop-opacity="1" stop-color="rgb(18.875122%, 38.250732%, 39.035034%)" offset="0.527344"/><stop stop-opacity="1" stop-color="rgb(18.685913%, 38.049316%, 38.833618%)" offset="0.539062"/><stop stop-opacity="1" stop-color="rgb(18.49823%, 37.846375%, 38.630676%)" offset="0.550781"/><stop stop-opacity="1" stop-color="rgb(18.309021%, 37.644958%, 38.42926%)" offset="0.5625"/><stop stop-opacity="1" stop-color="rgb(18.121338%, 37.442017%, 38.226318%)" offset="0.574219"/><stop stop-opacity="1" stop-color="rgb(17.932129%, 37.240601%, 38.024902%)" offset="0.585938"/><stop stop-opacity="1" stop-color="rgb(17.744446%, 37.037659%, 37.82196%)" offset="0.597656"/><stop stop-opacity="1" stop-color="rgb(17.555237%, 36.836243%, 37.620544%)" offset="0.609375"/><stop stop-opacity="1" stop-color="rgb(17.367554%, 36.633301%, 37.417603%)" offset="0.621094"/><stop stop-opacity="1" stop-color="rgb(17.115784%, 36.364746%, 37.147522%)" offset="0.632812"/><stop stop-opacity="1" stop-color="rgb(16.802979%, 36.027527%, 36.810303%)" offset="0.652344"/><stop stop-opacity="1" stop-color="rgb(16.488647%, 35.690308%, 36.473083%)" offset="0.671875"/><stop stop-opacity="1" stop-color="rgb(16.204834%, 35.386658%, 36.169434%)" offset="0.691406"/><stop stop-opacity="1" stop-color="rgb(15.95459%, 35.118103%, 35.900879%)" offset="0.707031"/><stop stop-opacity="1" stop-color="rgb(15.70282%, 34.848022%, 35.630798%)" offset="0.722656"/><stop stop-opacity="1" stop-color="rgb(15.45105%, 34.577942%, 35.360718%)" offset="0.738281"/><stop stop-opacity="1" stop-color="rgb(15.231323%, 34.342957%, 35.125732%)" offset="0.753906"/><stop stop-opacity="1" stop-color="rgb(15.04364%, 34.140015%, 34.922791%)" offset="0.765625"/><stop stop-opacity="1" stop-color="rgb(14.854431%, 33.938599%, 34.721375%)" offset="0.777344"/><stop stop-opacity="1" stop-color="rgb(14.666748%, 33.737183%, 34.518433%)" offset="0.789062"/><stop stop-opacity="1" stop-color="rgb(14.477539%, 33.534241%, 34.315491%)" offset="0.800781"/><stop stop-opacity="1" stop-color="rgb(14.289856%, 33.332825%, 34.114075%)" offset="0.8125"/><stop stop-opacity="1" stop-color="rgb(14.038086%, 33.062744%, 33.843994%)" offset="0.824219"/><stop stop-opacity="1" stop-color="rgb(13.725281%, 32.725525%, 33.506775%)" offset="0.84375"/><stop stop-opacity="1" stop-color="rgb(13.441467%, 32.421875%, 33.203125%)" offset="0.863281"/><stop stop-opacity="1" stop-color="rgb(13.221741%, 32.18689%, 32.96814%)" offset="0.878906"/><stop stop-opacity="1" stop-color="rgb(13.034058%, 31.983948%, 32.765198%)" offset="0.890625"/><stop stop-opacity="1" stop-color="rgb(12.844849%, 31.782532%, 32.563782%)" offset="0.902344"/><stop stop-opacity="1" stop-color="rgb(12.594604%, 31.512451%, 32.293701%)" offset="0.914062"/><stop stop-opacity="1" stop-color="rgb(12.310791%, 31.208801%, 31.990051%)" offset="0.933594"/><stop stop-opacity="1" stop-color="rgb(12.091064%, 30.973816%, 31.75354%)" offset="0.949219"/><stop stop-opacity="1" stop-color="rgb(11.84082%, 30.703735%, 31.483459%)" offset="0.960938"/><stop stop-opacity="1" stop-color="rgb(11.526489%, 30.366516%, 31.147766%)" offset="0.980469"/><stop stop-opacity="1" stop-color="rgb(11.369324%, 30.198669%, 30.979919%)" offset="1"/></radialGradient><clipPath id="9d17e258ff"><rect x="0" width="450" y="0" height="150"/></clipPath><clipPath id="b2dd491e14"><rect x="0" width="450" y="0" height="150"/></clipPath><clipPath id="7df35fe59a"><rect x="0" width="450" y="0" height="150"/></clipPath><mask id="c788970183"><g filter="url(#91e6c4e2d2)"><g transform="matrix(1, 0, 0, 1, 0, -0.000000000000007527)"><g clip-path="url(#7df35fe59a)"><g transform="matrix(1, 0, 0, 1, 0, -0.000000000000007527)"><g clip-path="url(#b2dd491e14)"><g fill="#000000" fill-opacity="1"><g transform="translate(9.164963, 121.947275)"><g><path d="M -1.953125 -8.90625 L 5.578125 -11.015625 L 38.234375 -102.03125 L 58.078125 -102.03125 L 89.96875 -11.015625 L 97.4375 -8.90625 L 95.9375 0 L 58.671875 0 L 57.171875 -8.90625 L 67.125 -11.015625 L 60.9375 -29.109375 L 26.765625 -29.109375 L 20.4375 -11.015625 L 30.390625 -8.90625 L 28.890625 0 L -0.453125 0 Z M 30.625 -40.34375 L 57.171875 -40.34375 L 44.640625 -77.15625 L 43.4375 -77.15625 Z M 30.625 -40.34375 "/></g></g></g><g fill="#000000" fill-opacity="1"><g transform="translate(110.049658, 121.947275)"><g><path d="M 16.0625 -90.578125 L 5.28125 -93.140625 L 6.78125 -102.03125 L 48.953125 -102.03125 C 60.265625 -102.03125 69.007812 -99.707031 75.1875 -95.0625 C 81.375 -90.414062 84.46875 -83.539062 84.46875 -74.4375 C 84.46875 -68.40625 83.035156 -63.238281 80.171875 -58.9375 C 77.304688 -54.632812 73.109375 -51.175781 67.578125 -48.5625 L 67.125 -47.140625 L 86.125 -11.53125 L 95.40625 -8.90625 L 93.890625 0 L 70.59375 0 L 47.203125 -44.578125 L 38.6875 -44.578125 L 38.6875 -11.46875 L 49.390625 -8.90625 L 47.890625 0 L 6.78125 0 L 5.28125 -8.90625 L 16.0625 -11.46875 Z M 38.6875 -90.796875 L 38.6875 -55.8125 L 44.1875 -55.8125 C 47.707031 -55.8125 50.773438 -55.984375 53.390625 -56.328125 C 56.003906 -56.679688 58.066406 -57.1875 59.578125 -57.84375 C 60.179688 -59.90625 60.660156 -62.28125 61.015625 -64.96875 C 61.367188 -67.65625 61.546875 -70.359375 61.546875 -73.078125 C 61.546875 -79.910156 59.984375 -84.570312 56.859375 -87.0625 C 53.742188 -89.550781 48.96875 -90.796875 42.53125 -90.796875 Z M 38.6875 -90.796875 "/></g></g></g><g fill="#000000" fill-opacity="1"><g transform="translate(212.065619, 121.947275)"><g><path d="M 51.515625 1.65625 C 36.328125 1.65625 24.875 -1.796875 17.15625 -8.703125 C 9.4375 -15.617188 5.578125 -25.914062 5.578125 -39.59375 L 5.578125 -45.546875 C 5.578125 -64.953125 9.660156 -79.492188 17.828125 -89.171875 C 26.003906 -98.859375 38.210938 -103.703125 54.453125 -103.703125 C 69.640625 -103.703125 81.140625 -100.253906 88.953125 -93.359375 C 96.773438 -86.472656 100.6875 -76.144531 100.6875 -62.375 L 100.6875 -56.484375 C 100.6875 -44.816406 99.210938 -34.910156 96.265625 -26.765625 C 93.328125 -18.628906 88.816406 -12.195312 82.734375 -7.46875 C 85.097656 -2.988281 87.242188 -0.0625 89.171875 1.3125 C 91.109375 2.695312 93.335938 3.390625 95.859375 3.390625 C 97.066406 3.390625 98.5625 3.203125 100.34375 2.828125 C 102.125 2.453125 103.617188 2.015625 104.828125 1.515625 L 104.828125 10.5625 C 102.867188 11.71875 100.316406 12.679688 97.171875 13.453125 C 94.023438 14.234375 90.867188 14.625 87.703125 14.625 C 82.378906 14.625 77.878906 13.539062 74.203125 11.375 C 70.535156 9.21875 67.492188 5.703125 65.078125 0.828125 L 64.859375 0.375 C 60.679688 1.226562 56.234375 1.65625 51.515625 1.65625 Z M 78.0625 -59.046875 C 78.0625 -70.210938 75.8125 -78.570312 71.3125 -84.125 C 66.8125 -89.675781 60.257812 -92.453125 51.65625 -92.453125 C 48.039062 -92.453125 44.519531 -91.960938 41.09375 -90.984375 C 37.675781 -90.003906 34.863281 -88.785156 32.65625 -87.328125 C 31.550781 -83.253906 30.53125 -77.988281 29.59375 -71.53125 C 28.664062 -65.070312 28.203125 -58.898438 28.203125 -53.015625 L 28.203125 -42.984375 C 28.203125 -41.734375 28.226562 -40.53125 28.28125 -39.375 C 28.332031 -38.21875 28.429688 -37.109375 28.578125 -36.046875 C 29.984375 -38.816406 32.195312 -40.976562 35.21875 -42.53125 C 38.238281 -44.09375 41.582031 -44.875 45.25 -44.875 C 51.6875 -44.875 57.28125 -43.25 62.03125 -40 C 66.78125 -36.757812 70.941406 -31.546875 74.515625 -24.359375 L 75.421875 -22.46875 C 76.023438 -25.6875 76.613281 -29.671875 77.1875 -34.421875 C 77.769531 -39.171875 78.0625 -44.035156 78.0625 -49.015625 Z M 32.65625 -26.625 C 32.65625 -25.3125 32.78125 -24.101562 33.03125 -23 C 33.28125 -21.894531 33.757812 -20.816406 34.46875 -19.765625 C 36.976562 -16.296875 40.003906 -13.726562 43.546875 -12.0625 C 47.097656 -10.40625 50.804688 -9.578125 54.671875 -9.578125 C 55.578125 -9.578125 56.457031 -9.601562 57.3125 -9.65625 C 58.164062 -9.707031 59 -9.78125 59.8125 -9.875 L 56.484375 -16.8125 C 53.773438 -22.394531 51.085938 -26.59375 48.421875 -29.40625 C 45.753906 -32.226562 42.9375 -33.640625 39.96875 -33.640625 C 37.550781 -33.640625 35.726562 -32.929688 34.5 -31.515625 C 33.269531 -30.109375 32.65625 -28.476562 32.65625 -26.625 Z M 32.65625 -26.625 "/></g></g></g><g fill="#000000" fill-opacity="1"><g transform="translate(325.922101, 121.947275)"><g><path d="M -1.953125 -8.90625 L 5.578125 -11.015625 L 38.234375 -102.03125 L 58.078125 -102.03125 L 89.96875 -11.015625 L 97.4375 -8.90625 L 95.9375 0 L 58.671875 0 L 57.171875 -8.90625 L 67.125 -11.015625 L 60.9375 -29.109375 L 26.765625 -29.109375 L 20.4375 -11.015625 L 30.390625 -8.90625 L 28.890625 0 L -0.453125 0 Z M 30.625 -40.34375 L 57.171875 -40.34375 L 44.640625 -77.15625 L 43.4375 -77.15625 Z M 30.625 -40.34375 "/></g></g></g><g fill="#000000" fill-opacity="1"><g transform="translate(426.807805, 121.947275)"><g/></g></g></g></g></g></g></g></mask><clipPath id="7ed4182c0c"><path d="M 0 0 L 450 0 L 450 150 L 0 150 Z M 0 0 " clip-rule="nonzero"/></clipPath><clipPath id="a68408c137"><rect x="0" width="450" y="0" height="150"/></clipPath><clipPath id="3062a2908a"><rect x="0" width="450" y="0" height="150"/></clipPath><clipPath id="d7ff7ba305"><rect x="0" width="450" y="0" height="150"/></clipPath></defs><g transform="matrix(1, 0, 0, 1, 0, -0.000000000000007527)"><g clip-path="url(#d7ff7ba305)"><g fill="#f5f5dc" fill-opacity="0.6"><g transform="translate(14.62629, 127.408599)"><g><path d="M -1.953125 -8.90625 L 5.578125 -11.015625 L 38.234375 -102.03125 L 58.078125 -102.03125 L 89.96875 -11.015625 L 97.4375 -8.90625 L 95.9375 0 L 58.671875 0 L 57.171875 -8.90625 L 67.125 -11.015625 L 60.9375 -29.109375 L 26.765625 -29.109375 L 20.4375 -11.015625 L 30.390625 -8.90625 L 28.890625 0 L -0.453125 0 Z M 30.625 -40.34375 L 57.171875 -40.34375 L 44.640625 -77.15625 L 43.4375 -77.15625 Z M 30.625 -40.34375 "/></g></g></g><g fill="#f5f5dc" fill-opacity="0.6"><g transform="translate(115.510984, 127.408599)"><g><path d="M 16.0625 -90.578125 L 5.28125 -93.140625 L 6.78125 -102.03125 L 48.953125 -102.03125 C 60.265625 -102.03125 69.007812 -99.707031 75.1875 -95.0625 C 81.375 -90.414062 84.46875 -83.539062 84.46875 -74.4375 C 84.46875 -68.40625 83.035156 -63.238281 80.171875 -58.9375 C 77.304688 -54.632812 73.109375 -51.175781 67.578125 -48.5625 L 67.125 -47.140625 L 86.125 -11.53125 L 95.40625 -8.90625 L 93.890625 0 L 70.59375 0 L 47.203125 -44.578125 L 38.6875 -44.578125 L 38.6875 -11.46875 L 49.390625 -8.90625 L 47.890625 0 L 6.78125 0 L 5.28125 -8.90625 L 16.0625 -11.46875 Z M 38.6875 -90.796875 L 38.6875 -55.8125 L 44.1875 -55.8125 C 47.707031 -55.8125 50.773438 -55.984375 53.390625 -56.328125 C 56.003906 -56.679688 58.066406 -57.1875 59.578125 -57.84375 C 60.179688 -59.90625 60.660156 -62.28125 61.015625 -64.96875 C 61.367188 -67.65625 61.546875 -70.359375 61.546875 -73.078125 C 61.546875 -79.910156 59.984375 -84.570312 56.859375 -87.0625 C 53.742188 -89.550781 48.96875 -90.796875 42.53125 -90.796875 Z M 38.6875 -90.796875 "/></g></g></g><g fill="#f5f5dc" fill-opacity="0.6"><g transform="translate(217.526946, 127.408599)"><g><path d="M 51.515625 1.65625 C 36.328125 1.65625 24.875 -1.796875 17.15625 -8.703125 C 9.4375 -15.617188 5.578125 -25.914062 5.578125 -39.59375 L 5.578125 -45.546875 C 5.578125 -64.953125 9.660156 -79.492188 17.828125 -89.171875 C 26.003906 -98.859375 38.210938 -103.703125 54.453125 -103.703125 C 69.640625 -103.703125 81.140625 -100.253906 88.953125 -93.359375 C 96.773438 -86.472656 100.6875 -76.144531 100.6875 -62.375 L 100.6875 -56.484375 C 100.6875 -44.816406 99.210938 -34.910156 96.265625 -26.765625 C 93.328125 -18.628906 88.816406 -12.195312 82.734375 -7.46875 C 85.097656 -2.988281 87.242188 -0.0625 89.171875 1.3125 C 91.109375 2.695312 93.335938 3.390625 95.859375 3.390625 C 97.066406 3.390625 98.5625 3.203125 100.34375 2.828125 C 102.125 2.453125 103.617188 2.015625 104.828125 1.515625 L 104.828125 10.5625 C 102.867188 11.71875 100.316406 12.679688 97.171875 13.453125 C 94.023438 14.234375 90.867188 14.625 87.703125 14.625 C 82.378906 14.625 77.878906 13.539062 74.203125 11.375 C 70.535156 9.21875 67.492188 5.703125 65.078125 0.828125 L 64.859375 0.375 C 60.679688 1.226562 56.234375 1.65625 51.515625 1.65625 Z M 78.0625 -59.046875 C 78.0625 -70.210938 75.8125 -78.570312 71.3125 -84.125 C 66.8125 -89.675781 60.257812 -92.453125 51.65625 -92.453125 C 48.039062 -92.453125 44.519531 -91.960938 41.09375 -90.984375 C 37.675781 -90.003906 34.863281 -88.785156 32.65625 -87.328125 C 31.550781 -83.253906 30.53125 -77.988281 29.59375 -71.53125 C 28.664062 -65.070312 28.203125 -58.898438 28.203125 -53.015625 L 28.203125 -42.984375 C 28.203125 -41.734375 28.226562 -40.53125 28.28125 -39.375 C 28.332031 -38.21875 28.429688 -37.109375 28.578125 -36.046875 C 29.984375 -38.816406 32.195312 -40.976562 35.21875 -42.53125 C 38.238281 -44.09375 41.582031 -44.875 45.25 -44.875 C 51.6875 -44.875 57.28125 -43.25 62.03125 -40 C 66.78125 -36.757812 70.941406 -31.546875 74.515625 -24.359375 L 75.421875 -22.46875 C 76.023438 -25.6875 76.613281 -29.671875 77.1875 -34.421875 C 77.769531 -39.171875 78.0625 -44.035156 78.0625 -49.015625 Z M 32.65625 -26.625 C 32.65625 -25.3125 32.78125 -24.101562 33.03125 -23 C 33.28125 -21.894531 33.757812 -20.816406 34.46875 -19.765625 C 36.976562 -16.296875 40.003906 -13.726562 43.546875 -12.0625 C 47.097656 -10.40625 50.804688 -9.578125 54.671875 -9.578125 C 55.578125 -9.578125 56.457031 -9.601562 57.3125 -9.65625 C 58.164062 -9.707031 59 -9.78125 59.8125 -9.875 L 56.484375 -16.8125 C 53.773438 -22.394531 51.085938 -26.59375 48.421875 -29.40625 C 45.753906 -32.226562 42.9375 -33.640625 39.96875 -33.640625 C 37.550781 -33.640625 35.726562 -32.929688 34.5 -31.515625 C 33.269531 -30.109375 32.65625 -28.476562 32.65625 -26.625 Z M 32.65625 -26.625 "/></g></g></g><g fill="#f5f5dc" fill-opacity="0.6"><g transform="translate(331.383428, 127.408599)"><g><path d="M -1.953125 -8.90625 L 5.578125 -11.015625 L 38.234375 -102.03125 L 58.078125 -102.03125 L 89.96875 -11.015625 L 97.4375 -8.90625 L 95.9375 0 L 58.671875 0 L 57.171875 -8.90625 L 67.125 -11.015625 L 60.9375 -29.109375 L 26.765625 -29.109375 L 20.4375 -11.015625 L 30.390625 -8.90625 L 28.890625 0 L -0.453125 0 Z M 30.625 -40.34375 L 57.171875 -40.34375 L 44.640625 -77.15625 L 43.4375 -77.15625 Z M 30.625 -40.34375 "/></g></g></g><g fill="#f5f5dc" fill-opacity="0.6"><g transform="translate(432.269132, 127.408599)"><g/></g></g><g transform="matrix(1, 0, 0, 1, 0, -0.000000000000007527)"><g clip-path="url(#3062a2908a)"><g mask="url(#c788970183)"><g transform="matrix(1, 0, 0, 1, 0, -0.000000000000007527)"><g clip-path="url(#a68408c137)"><g clip-path="url(#7ed4182c0c)"><rect x="-241.56" fill="url(#309480808f)" width="933.12" height="311.039995" y="-80.519999"/></g></g></g></g></g></g><path fill="#123334" d="M 437.285156 106.367188 C 441.679688 106.367188 445.246094 109.933594 445.246094 114.332031 C 445.246094 118.726562 441.679688 122.292969 437.285156 122.292969 C 432.886719 122.292969 429.320312 118.726562 429.320312 114.332031 C 429.320312 109.933594 432.886719 106.367188 437.285156 106.367188 M 437.285156 106.910156 C 436.28125 106.910156 435.308594 107.105469 434.394531 107.492188 C 433.511719 107.867188 432.71875 108.402344 432.039062 109.082031 C 431.355469 109.765625 430.820312 110.558594 430.445312 111.441406 C 430.058594 112.355469 429.863281 113.328125 429.863281 114.332031 C 429.863281 115.332031 430.058594 116.304688 430.445312 117.21875 C 430.820312 118.101562 431.355469 118.894531 432.039062 119.578125 C 432.71875 120.257812 433.511719 120.792969 434.394531 121.167969 C 435.308594 121.554688 436.28125 121.75 437.285156 121.75 C 438.285156 121.75 439.257812 121.554688 440.171875 121.167969 C 441.054688 120.792969 441.847656 120.257812 442.53125 119.578125 C 443.210938 118.894531 443.746094 118.101562 444.121094 117.21875 C 444.507812 116.304688 444.703125 115.332031 444.703125 114.332031 C 444.703125 113.328125 444.507812 112.355469 444.121094 111.441406 C 443.746094 110.558594 443.210938 109.765625 442.53125 109.082031 C 441.847656 108.402344 441.054688 107.867188 440.171875 107.492188 C 439.257812 107.105469 438.285156 106.910156 437.285156 106.910156 Z M 437.285156 106.910156 " fill-opacity="1" fill-rule="nonzero"/><path fill="#123334" d="M 433.265625 111.839844 L 431.324219 111.839844 L 431.324219 111.136719 L 436.050781 111.136719 L 436.050781 111.839844 L 434.097656 111.839844 L 434.097656 117.589844 L 433.265625 117.589844 Z M 433.265625 111.839844 " fill-opacity="1" fill-rule="nonzero"/><path fill="#123334" d="M 442.140625 114.71875 C 442.09375 113.828125 442.035156 112.75 442.035156 111.960938 L 442.015625 111.960938 C 441.789062 112.699219 441.535156 113.507812 441.210938 114.386719 L 440.085938 117.550781 L 439.460938 117.550781 L 438.417969 114.445312 C 438.113281 113.535156 437.867188 112.71875 437.6875 111.960938 L 437.671875 111.960938 C 437.652344 112.757812 437.605469 113.820312 437.546875 114.785156 L 437.375 117.589844 L 436.589844 117.589844 L 437.035156 111.136719 L 438.085938 111.136719 L 439.175781 114.226562 C 439.441406 115.011719 439.648438 115.78125 439.820312 116.445312 L 439.839844 116.445312 C 440.007812 115.800781 440.238281 115.03125 440.519531 114.226562 L 441.65625 111.136719 L 442.707031 111.136719 L 443.105469 117.589844 L 442.292969 117.589844 Z M 442.140625 114.71875 " fill-opacity="1" fill-rule="nonzero"/></g></g></svg>