<svg xmlns="http://www.w3.org/2000/svg" xmlns:xlink="http://www.w3.org/1999/xlink" width="600" zoomAndPan="magnify" viewBox="0 0 450 149.999998" height="200" preserveAspectRatio="xMidYMid meet" version="1.0"><defs><g/><clipPath id="3da78a9b60"><rect x="0" width="447" y="0" height="149"/></clipPath></defs><g transform="matrix(1, 0, 0, 1, 2, -0.000000000000007527)"><g clip-path="url(#3da78a9b60)"><g fill="#123334" fill-opacity="0.6"><g transform="translate(37.192103, 111.868099)"><g><path d="M -1.8125 -8.234375 L 5.171875 -10.203125 L 35.40625 -94.5 L 53.78125 -94.5 L 83.3125 -10.203125 L 90.234375 -8.234375 L 88.828125 0 L 54.328125 0 L 52.9375 -8.234375 L 62.15625 -10.203125 L 56.4375 -26.953125 L 24.796875 -26.953125 L 18.921875 -10.203125 L 28.140625 -8.234375 L 26.75 0 L -0.421875 0 Z M 28.359375 -37.359375 L 52.9375 -37.359375 L 41.34375 -71.453125 L 40.234375 -71.453125 Z M 28.359375 -37.359375 "/></g></g></g><g fill="#123334" fill-opacity="0.6"><g transform="translate(130.607115, 111.868099)"><g><path d="M 14.875 -83.875 L 4.890625 -86.25 L 6.28125 -94.5 L 45.328125 -94.5 C 55.804688 -94.5 63.90625 -92.34375 69.625 -88.03125 C 75.351562 -83.726562 78.21875 -77.363281 78.21875 -68.9375 C 78.21875 -63.34375 76.890625 -58.554688 74.234375 -54.578125 C 71.585938 -50.597656 67.703125 -47.398438 62.578125 -44.984375 L 62.15625 -43.65625 L 79.75 -10.6875 L 88.34375 -8.234375 L 86.953125 0 L 65.375 0 L 43.71875 -41.28125 L 35.828125 -41.28125 L 35.828125 -10.609375 L 45.75 -8.234375 L 44.34375 0 L 6.28125 0 L 4.890625 -8.234375 L 14.875 -10.609375 Z M 35.828125 -84.09375 L 35.828125 -51.6875 L 40.921875 -51.6875 C 44.179688 -51.6875 47.019531 -51.847656 49.4375 -52.171875 C 51.863281 -52.492188 53.773438 -52.957031 55.171875 -53.5625 C 55.734375 -55.476562 56.175781 -57.679688 56.5 -60.171875 C 56.820312 -62.660156 56.984375 -65.160156 56.984375 -67.671875 C 56.984375 -74.003906 55.539062 -78.320312 52.65625 -80.625 C 49.769531 -82.9375 45.347656 -84.09375 39.390625 -84.09375 Z M 35.828125 -84.09375 "/></g></g></g><g fill="#123334" fill-opacity="0.6"><g transform="translate(225.069633, 111.868099)"><g><path d="M 47.703125 1.53125 C 33.640625 1.53125 23.035156 -1.664062 15.890625 -8.0625 C 8.742188 -14.46875 5.171875 -24.003906 5.171875 -36.671875 L 5.171875 -42.1875 C 5.171875 -60.15625 8.953125 -73.617188 16.515625 -82.578125 C 24.078125 -91.546875 35.378906 -96.03125 50.421875 -96.03125 C 64.484375 -96.03125 75.132812 -92.835938 82.375 -86.453125 C 89.613281 -80.078125 93.234375 -70.507812 93.234375 -57.75 L 93.234375 -52.3125 C 93.234375 -41.507812 91.867188 -32.335938 89.140625 -24.796875 C 86.421875 -17.253906 82.242188 -11.296875 76.609375 -6.921875 C 78.796875 -2.773438 80.785156 -0.0625 82.578125 1.21875 C 84.378906 2.5 86.441406 3.140625 88.765625 3.140625 C 89.878906 3.140625 91.265625 2.960938 92.921875 2.609375 C 94.578125 2.265625 95.960938 1.859375 97.078125 1.390625 L 97.078125 9.78125 C 95.265625 10.851562 92.898438 11.75 89.984375 12.46875 C 87.078125 13.1875 84.15625 13.546875 81.21875 13.546875 C 76.289062 13.546875 72.125 12.546875 68.71875 10.546875 C 65.320312 8.546875 62.503906 5.285156 60.265625 0.765625 L 60.0625 0.34375 C 56.195312 1.132812 52.078125 1.53125 47.703125 1.53125 Z M 72.28125 -54.6875 C 72.28125 -65.019531 70.195312 -72.757812 66.03125 -77.90625 C 61.863281 -83.050781 55.800781 -85.625 47.84375 -85.625 C 44.488281 -85.625 41.226562 -85.171875 38.0625 -84.265625 C 34.894531 -83.359375 32.285156 -82.226562 30.234375 -80.875 C 29.210938 -77.101562 28.269531 -72.222656 27.40625 -66.234375 C 26.550781 -60.253906 26.125 -54.539062 26.125 -49.09375 L 26.125 -39.8125 C 26.125 -38.644531 26.144531 -37.523438 26.1875 -36.453125 C 26.238281 -35.378906 26.332031 -34.359375 26.46875 -33.390625 C 27.769531 -35.941406 29.816406 -37.9375 32.609375 -39.375 C 35.410156 -40.820312 38.507812 -41.546875 41.90625 -41.546875 C 47.863281 -41.546875 53.039062 -40.046875 57.4375 -37.046875 C 61.84375 -34.046875 65.695312 -29.21875 69 -22.5625 L 69.84375 -20.8125 C 70.394531 -23.789062 70.9375 -27.476562 71.46875 -31.875 C 72.007812 -36.28125 72.28125 -40.785156 72.28125 -45.390625 Z M 30.234375 -24.65625 C 30.234375 -23.445312 30.347656 -22.328125 30.578125 -21.296875 C 30.816406 -20.273438 31.265625 -19.273438 31.921875 -18.296875 C 34.242188 -15.085938 37.046875 -12.710938 40.328125 -11.171875 C 43.609375 -9.640625 47.046875 -8.875 50.640625 -8.875 C 51.472656 -8.875 52.285156 -8.894531 53.078125 -8.9375 C 53.867188 -8.988281 54.632812 -9.0625 55.375 -9.15625 L 52.3125 -15.578125 C 49.789062 -20.742188 47.296875 -24.628906 44.828125 -27.234375 C 42.367188 -29.835938 39.765625 -31.140625 37.015625 -31.140625 C 34.773438 -31.140625 33.082031 -30.488281 31.9375 -29.1875 C 30.800781 -27.882812 30.234375 -26.375 30.234375 -24.65625 Z M 30.234375 -24.65625 "/></g></g></g><g fill="#123334" fill-opacity="0.6"><g transform="translate(330.495978, 111.868099)"><g><path d="M -1.8125 -8.234375 L 5.171875 -10.203125 L 35.40625 -94.5 L 53.78125 -94.5 L 83.3125 -10.203125 L 90.234375 -8.234375 L 88.828125 0 L 54.328125 0 L 52.9375 -8.234375 L 62.15625 -10.203125 L 56.4375 -26.953125 L 24.796875 -26.953125 L 18.921875 -10.203125 L 28.140625 -8.234375 L 26.75 0 L -0.421875 0 Z M 28.359375 -37.359375 L 52.9375 -37.359375 L 41.34375 -71.453125 L 40.234375 -71.453125 Z M 28.359375 -37.359375 "/></g></g></g><g fill="#123334" fill-opacity="0.6"><g transform="translate(423.911925, 111.868099)"><g/></g></g><g fill="#f5f5dc" fill-opacity="1"><g transform="translate(32.135144, 106.81114)"><g><path d="M -1.8125 -8.234375 L 5.171875 -10.203125 L 35.40625 -94.5 L 53.78125 -94.5 L 83.3125 -10.203125 L 90.234375 -8.234375 L 88.828125 0 L 54.328125 0 L 52.9375 -8.234375 L 62.15625 -10.203125 L 56.4375 -26.953125 L 24.796875 -26.953125 L 18.921875 -10.203125 L 28.140625 -8.234375 L 26.75 0 L -0.421875 0 Z M 28.359375 -37.359375 L 52.9375 -37.359375 L 41.34375 -71.453125 L 40.234375 -71.453125 Z M 28.359375 -37.359375 "/></g></g></g><g fill="#f5f5dc" fill-opacity="1"><g transform="translate(125.550156, 106.81114)"><g><path d="M 14.875 -83.875 L 4.890625 -86.25 L 6.28125 -94.5 L 45.328125 -94.5 C 55.804688 -94.5 63.90625 -92.34375 69.625 -88.03125 C 75.351562 -83.726562 78.21875 -77.363281 78.21875 -68.9375 C 78.21875 -63.34375 76.890625 -58.554688 74.234375 -54.578125 C 71.585938 -50.597656 67.703125 -47.398438 62.578125 -44.984375 L 62.15625 -43.65625 L 79.75 -10.6875 L 88.34375 -8.234375 L 86.953125 0 L 65.375 0 L 43.71875 -41.28125 L 35.828125 -41.28125 L 35.828125 -10.609375 L 45.75 -8.234375 L 44.34375 0 L 6.28125 0 L 4.890625 -8.234375 L 14.875 -10.609375 Z M 35.828125 -84.09375 L 35.828125 -51.6875 L 40.921875 -51.6875 C 44.179688 -51.6875 47.019531 -51.847656 49.4375 -52.171875 C 51.863281 -52.492188 53.773438 -52.957031 55.171875 -53.5625 C 55.734375 -55.476562 56.175781 -57.679688 56.5 -60.171875 C 56.820312 -62.660156 56.984375 -65.160156 56.984375 -67.671875 C 56.984375 -74.003906 55.539062 -78.320312 52.65625 -80.625 C 49.769531 -82.9375 45.347656 -84.09375 39.390625 -84.09375 Z M 35.828125 -84.09375 "/></g></g></g><g fill="#f5f5dc" fill-opacity="1"><g transform="translate(220.012674, 106.81114)"><g><path d="M 47.703125 1.53125 C 33.640625 1.53125 23.035156 -1.664062 15.890625 -8.0625 C 8.742188 -14.46875 5.171875 -24.003906 5.171875 -36.671875 L 5.171875 -42.1875 C 5.171875 -60.15625 8.953125 -73.617188 16.515625 -82.578125 C 24.078125 -91.546875 35.378906 -96.03125 50.421875 -96.03125 C 64.484375 -96.03125 75.132812 -92.835938 82.375 -86.453125 C 89.613281 -80.078125 93.234375 -70.507812 93.234375 -57.75 L 93.234375 -52.3125 C 93.234375 -41.507812 91.867188 -32.335938 89.140625 -24.796875 C 86.421875 -17.253906 82.242188 -11.296875 76.609375 -6.921875 C 78.796875 -2.773438 80.785156 -0.0625 82.578125 1.21875 C 84.378906 2.5 86.441406 3.140625 88.765625 3.140625 C 89.878906 3.140625 91.265625 2.960938 92.921875 2.609375 C 94.578125 2.265625 95.960938 1.859375 97.078125 1.390625 L 97.078125 9.78125 C 95.265625 10.851562 92.898438 11.75 89.984375 12.46875 C 87.078125 13.1875 84.15625 13.546875 81.21875 13.546875 C 76.289062 13.546875 72.125 12.546875 68.71875 10.546875 C 65.320312 8.546875 62.503906 5.285156 60.265625 0.765625 L 60.0625 0.34375 C 56.195312 1.132812 52.078125 1.53125 47.703125 1.53125 Z M 72.28125 -54.6875 C 72.28125 -65.019531 70.195312 -72.757812 66.03125 -77.90625 C 61.863281 -83.050781 55.800781 -85.625 47.84375 -85.625 C 44.488281 -85.625 41.226562 -85.171875 38.0625 -84.265625 C 34.894531 -83.359375 32.285156 -82.226562 30.234375 -80.875 C 29.210938 -77.101562 28.269531 -72.222656 27.40625 -66.234375 C 26.550781 -60.253906 26.125 -54.539062 26.125 -49.09375 L 26.125 -39.8125 C 26.125 -38.644531 26.144531 -37.523438 26.1875 -36.453125 C 26.238281 -35.378906 26.332031 -34.359375 26.46875 -33.390625 C 27.769531 -35.941406 29.816406 -37.9375 32.609375 -39.375 C 35.410156 -40.820312 38.507812 -41.546875 41.90625 -41.546875 C 47.863281 -41.546875 53.039062 -40.046875 57.4375 -37.046875 C 61.84375 -34.046875 65.695312 -29.21875 69 -22.5625 L 69.84375 -20.8125 C 70.394531 -23.789062 70.9375 -27.476562 71.46875 -31.875 C 72.007812 -36.28125 72.28125 -40.785156 72.28125 -45.390625 Z M 30.234375 -24.65625 C 30.234375 -23.445312 30.347656 -22.328125 30.578125 -21.296875 C 30.816406 -20.273438 31.265625 -19.273438 31.921875 -18.296875 C 34.242188 -15.085938 37.046875 -12.710938 40.328125 -11.171875 C 43.609375 -9.640625 47.046875 -8.875 50.640625 -8.875 C 51.472656 -8.875 52.285156 -8.894531 53.078125 -8.9375 C 53.867188 -8.988281 54.632812 -9.0625 55.375 -9.15625 L 52.3125 -15.578125 C 49.789062 -20.742188 47.296875 -24.628906 44.828125 -27.234375 C 42.367188 -29.835938 39.765625 -31.140625 37.015625 -31.140625 C 34.773438 -31.140625 33.082031 -30.488281 31.9375 -29.1875 C 30.800781 -27.882812 30.234375 -26.375 30.234375 -24.65625 Z M 30.234375 -24.65625 "/></g></g></g><g fill="#f5f5dc" fill-opacity="1"><g transform="translate(325.439019, 106.81114)"><g><path d="M -1.8125 -8.234375 L 5.171875 -10.203125 L 35.40625 -94.5 L 53.78125 -94.5 L 83.3125 -10.203125 L 90.234375 -8.234375 L 88.828125 0 L 54.328125 0 L 52.9375 -8.234375 L 62.15625 -10.203125 L 56.4375 -26.953125 L 24.796875 -26.953125 L 18.921875 -10.203125 L 28.140625 -8.234375 L 26.75 0 L -0.421875 0 Z M 28.359375 -37.359375 L 52.9375 -37.359375 L 41.34375 -71.453125 L 40.234375 -71.453125 Z M 28.359375 -37.359375 "/></g></g></g><g fill="#f5f5dc" fill-opacity="1"><g transform="translate(418.854966, 106.81114)"><g/></g></g><g fill="#f5f5dc" fill-opacity="1"><g transform="translate(0.632692, 139.777378)"><g><path d="M 8.65625 -12.375 L 8.65625 -11.34375 L 5.21875 -11.34375 L 5.21875 0 L 3.984375 0 L 3.984375 -11.34375 L 0.53125 -11.34375 L 0.53125 -12.375 Z M 8.65625 -12.375 "/></g></g></g><g fill="#f5f5dc" fill-opacity="1"><g transform="translate(10.458375, 139.777378)"><g><path d="M 2.65625 -7.953125 C 2.925781 -8.546875 3.34375 -9.007812 3.90625 -9.34375 C 4.46875 -9.675781 5.15625 -9.84375 5.96875 -9.84375 L 5.96875 -8.546875 L 5.625 -8.546875 C 4.726562 -8.546875 4.007812 -8.300781 3.46875 -7.8125 C 2.925781 -7.332031 2.65625 -6.53125 2.65625 -5.40625 L 2.65625 0 L 1.421875 0 L 1.421875 -9.671875 L 2.65625 -9.671875 Z M 2.65625 -7.953125 "/></g></g></g><g fill="#f5f5dc" fill-opacity="1"><g transform="translate(17.486894, 139.777378)"><g><path d="M 9.796875 -9.671875 L 9.796875 0 L 8.546875 0 L 8.546875 -1.703125 C 8.265625 -1.097656 7.828125 -0.632812 7.234375 -0.3125 C 6.648438 0 5.988281 0.15625 5.25 0.15625 C 4.09375 0.15625 3.148438 -0.195312 2.421875 -0.90625 C 1.691406 -1.625 1.328125 -2.660156 1.328125 -4.015625 L 1.328125 -9.671875 L 2.546875 -9.671875 L 2.546875 -4.15625 C 2.546875 -3.101562 2.804688 -2.300781 3.328125 -1.75 C 3.859375 -1.195312 4.578125 -0.921875 5.484375 -0.921875 C 6.421875 -0.921875 7.164062 -1.210938 7.71875 -1.796875 C 8.269531 -2.390625 8.546875 -3.257812 8.546875 -4.40625 L 8.546875 -9.671875 Z M 9.796875 -9.671875 "/></g></g></g><g fill="#f5f5dc" fill-opacity="1"><g transform="translate(29.313087, 139.777378)"><g><path d="M 4.75 0.140625 C 3.632812 0.140625 2.722656 -0.113281 2.015625 -0.625 C 1.316406 -1.144531 0.925781 -1.84375 0.84375 -2.71875 L 2.125 -2.71875 C 2.1875 -2.175781 2.441406 -1.738281 2.890625 -1.40625 C 3.347656 -1.070312 3.960938 -0.90625 4.734375 -0.90625 C 5.398438 -0.90625 5.925781 -1.0625 6.3125 -1.375 C 6.695312 -1.695312 6.890625 -2.09375 6.890625 -2.5625 C 6.890625 -2.894531 6.78125 -3.164062 6.5625 -3.375 C 6.351562 -3.59375 6.085938 -3.765625 5.765625 -3.890625 C 5.441406 -4.015625 5 -4.144531 4.4375 -4.28125 C 3.71875 -4.46875 3.132812 -4.65625 2.6875 -4.84375 C 2.238281 -5.039062 1.859375 -5.320312 1.546875 -5.6875 C 1.234375 -6.0625 1.078125 -6.5625 1.078125 -7.1875 C 1.078125 -7.65625 1.21875 -8.085938 1.5 -8.484375 C 1.78125 -8.890625 2.179688 -9.210938 2.703125 -9.453125 C 3.222656 -9.691406 3.816406 -9.8125 4.484375 -9.8125 C 5.515625 -9.8125 6.347656 -9.546875 6.984375 -9.015625 C 7.628906 -8.492188 7.972656 -7.769531 8.015625 -6.84375 L 6.78125 -6.84375 C 6.75 -7.414062 6.523438 -7.875 6.109375 -8.21875 C 5.703125 -8.570312 5.144531 -8.75 4.4375 -8.75 C 3.8125 -8.75 3.304688 -8.597656 2.921875 -8.296875 C 2.535156 -8.003906 2.34375 -7.640625 2.34375 -7.203125 C 2.34375 -6.828125 2.457031 -6.515625 2.6875 -6.265625 C 2.914062 -6.023438 3.195312 -5.835938 3.53125 -5.703125 C 3.875 -5.566406 4.335938 -5.414062 4.921875 -5.25 C 5.617188 -5.0625 6.171875 -4.878906 6.578125 -4.703125 C 6.992188 -4.523438 7.347656 -4.265625 7.640625 -3.921875 C 7.941406 -3.585938 8.097656 -3.132812 8.109375 -2.5625 C 8.109375 -2.039062 7.96875 -1.578125 7.6875 -1.171875 C 7.40625 -0.765625 7.007812 -0.441406 6.5 -0.203125 C 5.988281 0.0234375 5.40625 0.140625 4.75 0.140625 Z M 4.75 0.140625 "/></g></g></g><g fill="#f5f5dc" fill-opacity="1"><g transform="translate(38.961736, 139.777378)"><g><path d="M 3.03125 -8.625 L 3.03125 -2.625 C 3.03125 -2.03125 3.140625 -1.617188 3.359375 -1.390625 C 3.585938 -1.171875 3.984375 -1.0625 4.546875 -1.0625 L 5.6875 -1.0625 L 5.6875 0 L 4.359375 0 C 3.484375 0 2.832031 -0.203125 2.40625 -0.609375 C 1.976562 -1.015625 1.765625 -1.6875 1.765625 -2.625 L 1.765625 -8.625 L 0.421875 -8.625 L 0.421875 -9.671875 L 1.765625 -9.671875 L 1.765625 -12.09375 L 3.03125 -12.09375 L 3.03125 -9.671875 L 5.6875 -9.671875 L 5.6875 -8.625 Z M 3.03125 -8.625 "/></g></g></g><g fill="#f5f5dc" fill-opacity="1"><g transform="translate(45.884027, 139.777378)"><g><path d="M 10.15625 -5.328125 C 10.15625 -4.898438 10.144531 -4.578125 10.125 -4.359375 L 2.109375 -4.359375 C 2.140625 -3.617188 2.3125 -2.988281 2.625 -2.46875 C 2.945312 -1.957031 3.367188 -1.566406 3.890625 -1.296875 C 4.410156 -1.035156 4.976562 -0.90625 5.59375 -0.90625 C 6.394531 -0.90625 7.066406 -1.097656 7.609375 -1.484375 C 8.160156 -1.878906 8.523438 -2.40625 8.703125 -3.0625 L 10.015625 -3.0625 C 9.785156 -2.113281 9.28125 -1.34375 8.5 -0.75 C 7.726562 -0.15625 6.757812 0.140625 5.59375 0.140625 C 4.6875 0.140625 3.875 -0.0625 3.15625 -0.46875 C 2.4375 -0.875 1.867188 -1.453125 1.453125 -2.203125 C 1.046875 -2.953125 0.84375 -3.828125 0.84375 -4.828125 C 0.84375 -5.835938 1.039062 -6.71875 1.4375 -7.46875 C 1.84375 -8.226562 2.40625 -8.804688 3.125 -9.203125 C 3.851562 -9.609375 4.675781 -9.8125 5.59375 -9.8125 C 6.507812 -9.8125 7.3125 -9.609375 8 -9.203125 C 8.695312 -8.804688 9.226562 -8.265625 9.59375 -7.578125 C 9.96875 -6.898438 10.15625 -6.148438 10.15625 -5.328125 Z M 8.90625 -5.359375 C 8.914062 -6.078125 8.769531 -6.691406 8.46875 -7.203125 C 8.164062 -7.710938 7.753906 -8.097656 7.234375 -8.359375 C 6.722656 -8.617188 6.160156 -8.75 5.546875 -8.75 C 4.617188 -8.75 3.832031 -8.453125 3.1875 -7.859375 C 2.539062 -7.265625 2.179688 -6.429688 2.109375 -5.359375 Z M 8.90625 -5.359375 "/></g></g></g><g fill="#f5f5dc" fill-opacity="1"><g transform="translate(57.515476, 139.777378)"><g><path d="M 0.84375 -4.84375 C 0.84375 -5.84375 1.039062 -6.71875 1.4375 -7.46875 C 1.84375 -8.21875 2.394531 -8.796875 3.09375 -9.203125 C 3.800781 -9.609375 4.597656 -9.8125 5.484375 -9.8125 C 6.335938 -9.8125 7.101562 -9.601562 7.78125 -9.1875 C 8.46875 -8.769531 8.972656 -8.234375 9.296875 -7.578125 L 9.296875 -13.09375 L 10.53125 -13.09375 L 10.53125 0 L 9.296875 0 L 9.296875 -2.15625 C 8.992188 -1.488281 8.503906 -0.9375 7.828125 -0.5 C 7.160156 -0.0703125 6.375 0.140625 5.46875 0.140625 C 4.582031 0.140625 3.785156 -0.0625 3.078125 -0.46875 C 2.378906 -0.882812 1.832031 -1.46875 1.4375 -2.21875 C 1.039062 -2.976562 0.84375 -3.851562 0.84375 -4.84375 Z M 9.296875 -4.828125 C 9.296875 -5.609375 9.132812 -6.289062 8.8125 -6.875 C 8.5 -7.46875 8.066406 -7.925781 7.515625 -8.25 C 6.960938 -8.570312 6.359375 -8.734375 5.703125 -8.734375 C 5.015625 -8.734375 4.398438 -8.578125 3.859375 -8.265625 C 3.316406 -7.960938 2.890625 -7.515625 2.578125 -6.921875 C 2.265625 -6.335938 2.109375 -5.644531 2.109375 -4.84375 C 2.109375 -4.0625 2.265625 -3.367188 2.578125 -2.765625 C 2.890625 -2.171875 3.316406 -1.71875 3.859375 -1.40625 C 4.398438 -1.09375 5.015625 -0.9375 5.703125 -0.9375 C 6.359375 -0.9375 6.960938 -1.09375 7.515625 -1.40625 C 8.066406 -1.726562 8.5 -2.1875 8.8125 -2.78125 C 9.132812 -3.375 9.296875 -4.054688 9.296875 -4.828125 Z M 9.296875 -4.828125 "/></g></g></g><g fill="#f5f5dc" fill-opacity="1"><g transform="translate(70.085211, 139.777378)"><g/></g></g><g fill="#f5f5dc" fill-opacity="1"><g transform="translate(75.555807, 139.777378)"><g><path d="M 2.640625 -7.53125 C 2.953125 -8.195312 3.441406 -8.742188 4.109375 -9.171875 C 4.773438 -9.597656 5.566406 -9.8125 6.484375 -9.8125 C 7.367188 -9.8125 8.15625 -9.609375 8.84375 -9.203125 C 9.539062 -8.796875 10.085938 -8.21875 10.484375 -7.46875 C 10.878906 -6.71875 11.078125 -5.84375 11.078125 -4.84375 C 11.078125 -3.851562 10.878906 -2.976562 10.484375 -2.21875 C 10.085938 -1.46875 9.539062 -0.882812 8.84375 -0.46875 C 8.144531 -0.0625 7.359375 0.140625 6.484375 0.140625 C 5.554688 0.140625 4.757812 -0.0664062 4.09375 -0.484375 C 3.425781 -0.898438 2.941406 -1.445312 2.640625 -2.125 L 2.640625 0 L 1.421875 0 L 1.421875 -13.09375 L 2.640625 -13.09375 Z M 9.828125 -4.84375 C 9.828125 -5.644531 9.671875 -6.335938 9.359375 -6.921875 C 9.046875 -7.515625 8.617188 -7.960938 8.078125 -8.265625 C 7.535156 -8.578125 6.921875 -8.734375 6.234375 -8.734375 C 5.566406 -8.734375 4.957031 -8.570312 4.40625 -8.25 C 3.863281 -7.925781 3.429688 -7.46875 3.109375 -6.875 C 2.796875 -6.289062 2.640625 -5.609375 2.640625 -4.828125 C 2.640625 -4.054688 2.796875 -3.375 3.109375 -2.78125 C 3.429688 -2.1875 3.863281 -1.726562 4.40625 -1.40625 C 4.957031 -1.09375 5.566406 -0.9375 6.234375 -0.9375 C 6.921875 -0.9375 7.535156 -1.09375 8.078125 -1.40625 C 8.617188 -1.71875 9.046875 -2.171875 9.359375 -2.765625 C 9.671875 -3.367188 9.828125 -4.0625 9.828125 -4.84375 Z M 9.828125 -4.84375 "/></g></g></g><g fill="#f5f5dc" fill-opacity="1"><g transform="translate(88.125542, 139.777378)"><g><path d="M 9.375 -9.671875 L 3.640625 4.546875 L 2.359375 4.546875 L 4.234375 -0.046875 L 0.265625 -9.671875 L 1.625 -9.671875 L 4.921875 -1.421875 L 8.109375 -9.671875 Z M 9.375 -9.671875 "/></g></g></g><g fill="#f5f5dc" fill-opacity="1"><g transform="translate(98.393812, 139.777378)"><g/></g></g><g fill="#f5f5dc" fill-opacity="1"><g transform="translate(103.864408, 139.777378)"><g><path d="M 9.328125 -8.8125 C 9.328125 -7.75 8.976562 -6.894531 8.28125 -6.25 C 7.582031 -5.601562 6.539062 -5.28125 5.15625 -5.28125 L 2.65625 -5.28125 L 2.65625 0 L 1.421875 0 L 1.421875 -12.375 L 5.15625 -12.375 C 6.53125 -12.375 7.566406 -12.046875 8.265625 -11.390625 C 8.972656 -10.742188 9.328125 -9.882812 9.328125 -8.8125 Z M 5.15625 -6.34375 C 7.09375 -6.34375 8.0625 -7.164062 8.0625 -8.8125 C 8.0625 -9.644531 7.828125 -10.269531 7.359375 -10.6875 C 6.898438 -11.113281 6.164062 -11.328125 5.15625 -11.328125 L 2.65625 -11.328125 L 2.65625 -6.34375 Z M 5.15625 -6.34375 "/></g></g></g><g fill="#f5f5dc" fill-opacity="1"><g transform="translate(114.469053, 139.777378)"><g><path d="M 2.65625 -7.953125 C 2.925781 -8.546875 3.34375 -9.007812 3.90625 -9.34375 C 4.46875 -9.675781 5.15625 -9.84375 5.96875 -9.84375 L 5.96875 -8.546875 L 5.625 -8.546875 C 4.726562 -8.546875 4.007812 -8.300781 3.46875 -7.8125 C 2.925781 -7.332031 2.65625 -6.53125 2.65625 -5.40625 L 2.65625 0 L 1.421875 0 L 1.421875 -9.671875 L 2.65625 -9.671875 Z M 2.65625 -7.953125 "/></g></g></g><g fill="#f5f5dc" fill-opacity="1"><g transform="translate(121.497571, 139.777378)"><g><path d="M 5.640625 0.140625 C 4.734375 0.140625 3.914062 -0.0625 3.1875 -0.46875 C 2.46875 -0.875 1.894531 -1.453125 1.46875 -2.203125 C 1.050781 -2.953125 0.84375 -3.828125 0.84375 -4.828125 C 0.84375 -5.835938 1.054688 -6.71875 1.484375 -7.46875 C 1.910156 -8.21875 2.488281 -8.796875 3.21875 -9.203125 C 3.945312 -9.609375 4.769531 -9.8125 5.6875 -9.8125 C 6.59375 -9.8125 7.414062 -9.609375 8.15625 -9.203125 C 8.894531 -8.796875 9.472656 -8.21875 9.890625 -7.46875 C 10.304688 -6.71875 10.515625 -5.835938 10.515625 -4.828125 C 10.515625 -3.835938 10.300781 -2.960938 9.875 -2.203125 C 9.445312 -1.453125 8.863281 -0.875 8.125 -0.46875 C 7.382812 -0.0625 6.554688 0.140625 5.640625 0.140625 Z M 5.640625 -0.9375 C 6.285156 -0.9375 6.878906 -1.082031 7.421875 -1.375 C 7.960938 -1.664062 8.398438 -2.101562 8.734375 -2.6875 C 9.066406 -3.269531 9.234375 -3.984375 9.234375 -4.828125 C 9.234375 -5.679688 9.066406 -6.398438 8.734375 -6.984375 C 8.410156 -7.566406 7.976562 -8.003906 7.4375 -8.296875 C 6.894531 -8.585938 6.304688 -8.734375 5.671875 -8.734375 C 5.023438 -8.734375 4.429688 -8.585938 3.890625 -8.296875 C 3.347656 -8.003906 2.914062 -7.566406 2.59375 -6.984375 C 2.269531 -6.398438 2.109375 -5.679688 2.109375 -4.828125 C 2.109375 -3.984375 2.269531 -3.269531 2.59375 -2.6875 C 2.914062 -2.101562 3.34375 -1.664062 3.875 -1.375 C 4.414062 -1.082031 5.003906 -0.9375 5.640625 -0.9375 Z M 5.640625 -0.9375 "/></g></g></g><g fill="#f5f5dc" fill-opacity="1"><g transform="translate(133.483089, 139.777378)"><g><path d="M 5.21875 -8.625 L 2.96875 -8.625 L 2.96875 0 L 1.734375 0 L 1.734375 -8.625 L 0.390625 -8.625 L 0.390625 -9.671875 L 1.734375 -9.671875 L 1.734375 -10.34375 C 1.734375 -11.394531 2 -12.164062 2.53125 -12.65625 C 3.070312 -13.15625 3.945312 -13.40625 5.15625 -13.40625 L 5.15625 -12.34375 C 4.351562 -12.34375 3.785156 -12.1875 3.453125 -11.875 C 3.128906 -11.570312 2.96875 -11.0625 2.96875 -10.34375 L 2.96875 -9.671875 L 5.21875 -9.671875 Z M 5.21875 -8.625 "/></g></g></g><g fill="#f5f5dc" fill-opacity="1"><g transform="translate(139.856567, 139.777378)"><g><path d="M 10.15625 -5.328125 C 10.15625 -4.898438 10.144531 -4.578125 10.125 -4.359375 L 2.109375 -4.359375 C 2.140625 -3.617188 2.3125 -2.988281 2.625 -2.46875 C 2.945312 -1.957031 3.367188 -1.566406 3.890625 -1.296875 C 4.410156 -1.035156 4.976562 -0.90625 5.59375 -0.90625 C 6.394531 -0.90625 7.066406 -1.097656 7.609375 -1.484375 C 8.160156 -1.878906 8.523438 -2.40625 8.703125 -3.0625 L 10.015625 -3.0625 C 9.785156 -2.113281 9.28125 -1.34375 8.5 -0.75 C 7.726562 -0.15625 6.757812 0.140625 5.59375 0.140625 C 4.6875 0.140625 3.875 -0.0625 3.15625 -0.46875 C 2.4375 -0.875 1.867188 -1.453125 1.453125 -2.203125 C 1.046875 -2.953125 0.84375 -3.828125 0.84375 -4.828125 C 0.84375 -5.835938 1.039062 -6.71875 1.4375 -7.46875 C 1.84375 -8.226562 2.40625 -8.804688 3.125 -9.203125 C 3.851562 -9.609375 4.675781 -9.8125 5.59375 -9.8125 C 6.507812 -9.8125 7.3125 -9.609375 8 -9.203125 C 8.695312 -8.804688 9.226562 -8.265625 9.59375 -7.578125 C 9.96875 -6.898438 10.15625 -6.148438 10.15625 -5.328125 Z M 8.90625 -5.359375 C 8.914062 -6.078125 8.769531 -6.691406 8.46875 -7.203125 C 8.164062 -7.710938 7.753906 -8.097656 7.234375 -8.359375 C 6.722656 -8.617188 6.160156 -8.75 5.546875 -8.75 C 4.617188 -8.75 3.832031 -8.453125 3.1875 -7.859375 C 2.539062 -7.265625 2.179688 -6.429688 2.109375 -5.359375 Z M 8.90625 -5.359375 "/></g></g></g><g fill="#f5f5dc" fill-opacity="1"><g transform="translate(151.488016, 139.777378)"><g><path d="M 4.75 0.140625 C 3.632812 0.140625 2.722656 -0.113281 2.015625 -0.625 C 1.316406 -1.144531 0.925781 -1.84375 0.84375 -2.71875 L 2.125 -2.71875 C 2.1875 -2.175781 2.441406 -1.738281 2.890625 -1.40625 C 3.347656 -1.070312 3.960938 -0.90625 4.734375 -0.90625 C 5.398438 -0.90625 5.925781 -1.0625 6.3125 -1.375 C 6.695312 -1.695312 6.890625 -2.09375 6.890625 -2.5625 C 6.890625 -2.894531 6.78125 -3.164062 6.5625 -3.375 C 6.351562 -3.59375 6.085938 -3.765625 5.765625 -3.890625 C 5.441406 -4.015625 5 -4.144531 4.4375 -4.28125 C 3.71875 -4.46875 3.132812 -4.65625 2.6875 -4.84375 C 2.238281 -5.039062 1.859375 -5.320312 1.546875 -5.6875 C 1.234375 -6.0625 1.078125 -6.5625 1.078125 -7.1875 C 1.078125 -7.65625 1.21875 -8.085938 1.5 -8.484375 C 1.78125 -8.890625 2.179688 -9.210938 2.703125 -9.453125 C 3.222656 -9.691406 3.816406 -9.8125 4.484375 -9.8125 C 5.515625 -9.8125 6.347656 -9.546875 6.984375 -9.015625 C 7.628906 -8.492188 7.972656 -7.769531 8.015625 -6.84375 L 6.78125 -6.84375 C 6.75 -7.414062 6.523438 -7.875 6.109375 -8.21875 C 5.703125 -8.570312 5.144531 -8.75 4.4375 -8.75 C 3.8125 -8.75 3.304688 -8.597656 2.921875 -8.296875 C 2.535156 -8.003906 2.34375 -7.640625 2.34375 -7.203125 C 2.34375 -6.828125 2.457031 -6.515625 2.6875 -6.265625 C 2.914062 -6.023438 3.195312 -5.835938 3.53125 -5.703125 C 3.875 -5.566406 4.335938 -5.414062 4.921875 -5.25 C 5.617188 -5.0625 6.171875 -4.878906 6.578125 -4.703125 C 6.992188 -4.523438 7.347656 -4.265625 7.640625 -3.921875 C 7.941406 -3.585938 8.097656 -3.132812 8.109375 -2.5625 C 8.109375 -2.039062 7.96875 -1.578125 7.6875 -1.171875 C 7.40625 -0.765625 7.007812 -0.441406 6.5 -0.203125 C 5.988281 0.0234375 5.40625 0.140625 4.75 0.140625 Z M 4.75 0.140625 "/></g></g></g><g fill="#f5f5dc" fill-opacity="1"><g transform="translate(161.136665, 139.777378)"><g><path d="M 4.75 0.140625 C 3.632812 0.140625 2.722656 -0.113281 2.015625 -0.625 C 1.316406 -1.144531 0.925781 -1.84375 0.84375 -2.71875 L 2.125 -2.71875 C 2.1875 -2.175781 2.441406 -1.738281 2.890625 -1.40625 C 3.347656 -1.070312 3.960938 -0.90625 4.734375 -0.90625 C 5.398438 -0.90625 5.925781 -1.0625 6.3125 -1.375 C 6.695312 -1.695312 6.890625 -2.09375 6.890625 -2.5625 C 6.890625 -2.894531 6.78125 -3.164062 6.5625 -3.375 C 6.351562 -3.59375 6.085938 -3.765625 5.765625 -3.890625 C 5.441406 -4.015625 5 -4.144531 4.4375 -4.28125 C 3.71875 -4.46875 3.132812 -4.65625 2.6875 -4.84375 C 2.238281 -5.039062 1.859375 -5.320312 1.546875 -5.6875 C 1.234375 -6.0625 1.078125 -6.5625 1.078125 -7.1875 C 1.078125 -7.65625 1.21875 -8.085938 1.5 -8.484375 C 1.78125 -8.890625 2.179688 -9.210938 2.703125 -9.453125 C 3.222656 -9.691406 3.816406 -9.8125 4.484375 -9.8125 C 5.515625 -9.8125 6.347656 -9.546875 6.984375 -9.015625 C 7.628906 -8.492188 7.972656 -7.769531 8.015625 -6.84375 L 6.78125 -6.84375 C 6.75 -7.414062 6.523438 -7.875 6.109375 -8.21875 C 5.703125 -8.570312 5.144531 -8.75 4.4375 -8.75 C 3.8125 -8.75 3.304688 -8.597656 2.921875 -8.296875 C 2.535156 -8.003906 2.34375 -7.640625 2.34375 -7.203125 C 2.34375 -6.828125 2.457031 -6.515625 2.6875 -6.265625 C 2.914062 -6.023438 3.195312 -5.835938 3.53125 -5.703125 C 3.875 -5.566406 4.335938 -5.414062 4.921875 -5.25 C 5.617188 -5.0625 6.171875 -4.878906 6.578125 -4.703125 C 6.992188 -4.523438 7.347656 -4.265625 7.640625 -3.921875 C 7.941406 -3.585938 8.097656 -3.132812 8.109375 -2.5625 C 8.109375 -2.039062 7.96875 -1.578125 7.6875 -1.171875 C 7.40625 -0.765625 7.007812 -0.441406 6.5 -0.203125 C 5.988281 0.0234375 5.40625 0.140625 4.75 0.140625 Z M 4.75 0.140625 "/></g></g></g><g fill="#f5f5dc" fill-opacity="1"><g transform="translate(170.785314, 139.777378)"><g><path d="M 2.03125 -11.484375 C 1.789062 -11.484375 1.582031 -11.570312 1.40625 -11.75 C 1.226562 -11.925781 1.140625 -12.144531 1.140625 -12.40625 C 1.140625 -12.664062 1.226562 -12.878906 1.40625 -13.046875 C 1.582031 -13.222656 1.789062 -13.3125 2.03125 -13.3125 C 2.28125 -13.3125 2.492188 -13.222656 2.671875 -13.046875 C 2.847656 -12.878906 2.9375 -12.664062 2.9375 -12.40625 C 2.9375 -12.144531 2.847656 -11.925781 2.671875 -11.75 C 2.492188 -11.570312 2.28125 -11.484375 2.03125 -11.484375 Z M 2.65625 -9.671875 L 2.65625 0 L 1.421875 0 L 1.421875 -9.671875 Z M 2.65625 -9.671875 "/></g></g></g><g fill="#f5f5dc" fill-opacity="1"><g transform="translate(175.459254, 139.777378)"><g><path d="M 5.640625 0.140625 C 4.734375 0.140625 3.914062 -0.0625 3.1875 -0.46875 C 2.46875 -0.875 1.894531 -1.453125 1.46875 -2.203125 C 1.050781 -2.953125 0.84375 -3.828125 0.84375 -4.828125 C 0.84375 -5.835938 1.054688 -6.71875 1.484375 -7.46875 C 1.910156 -8.21875 2.488281 -8.796875 3.21875 -9.203125 C 3.945312 -9.609375 4.769531 -9.8125 5.6875 -9.8125 C 6.59375 -9.8125 7.414062 -9.609375 8.15625 -9.203125 C 8.894531 -8.796875 9.472656 -8.21875 9.890625 -7.46875 C 10.304688 -6.71875 10.515625 -5.835938 10.515625 -4.828125 C 10.515625 -3.835938 10.300781 -2.960938 9.875 -2.203125 C 9.445312 -1.453125 8.863281 -0.875 8.125 -0.46875 C 7.382812 -0.0625 6.554688 0.140625 5.640625 0.140625 Z M 5.640625 -0.9375 C 6.285156 -0.9375 6.878906 -1.082031 7.421875 -1.375 C 7.960938 -1.664062 8.398438 -2.101562 8.734375 -2.6875 C 9.066406 -3.269531 9.234375 -3.984375 9.234375 -4.828125 C 9.234375 -5.679688 9.066406 -6.398438 8.734375 -6.984375 C 8.410156 -7.566406 7.976562 -8.003906 7.4375 -8.296875 C 6.894531 -8.585938 6.304688 -8.734375 5.671875 -8.734375 C 5.023438 -8.734375 4.429688 -8.585938 3.890625 -8.296875 C 3.347656 -8.003906 2.914062 -7.566406 2.59375 -6.984375 C 2.269531 -6.398438 2.109375 -5.679688 2.109375 -4.828125 C 2.109375 -3.984375 2.269531 -3.269531 2.59375 -2.6875 C 2.914062 -2.101562 3.34375 -1.664062 3.875 -1.375 C 4.414062 -1.082031 5.003906 -0.9375 5.640625 -0.9375 Z M 5.640625 -0.9375 "/></g></g></g><g fill="#f5f5dc" fill-opacity="1"><g transform="translate(187.444772, 139.777378)"><g><path d="M 5.953125 -9.84375 C 7.109375 -9.84375 8.050781 -9.484375 8.78125 -8.765625 C 9.507812 -8.054688 9.875 -7.023438 9.875 -5.671875 L 9.875 0 L 8.65625 0 L 8.65625 -5.515625 C 8.65625 -6.566406 8.390625 -7.367188 7.859375 -7.921875 C 7.335938 -8.484375 6.625 -8.765625 5.71875 -8.765625 C 4.78125 -8.765625 4.035156 -8.46875 3.484375 -7.875 C 2.929688 -7.289062 2.65625 -6.425781 2.65625 -5.28125 L 2.65625 0 L 1.421875 0 L 1.421875 -9.671875 L 2.65625 -9.671875 L 2.65625 -8.015625 C 2.957031 -8.609375 3.394531 -9.0625 3.96875 -9.375 C 4.550781 -9.6875 5.210938 -9.84375 5.953125 -9.84375 Z M 5.953125 -9.84375 "/></g></g></g><g fill="#f5f5dc" fill-opacity="1"><g transform="translate(199.270965, 139.777378)"><g><path d="M 0.84375 -4.84375 C 0.84375 -5.84375 1.039062 -6.71875 1.4375 -7.46875 C 1.832031 -8.21875 2.378906 -8.796875 3.078125 -9.203125 C 3.785156 -9.609375 4.582031 -9.8125 5.46875 -9.8125 C 6.382812 -9.8125 7.175781 -9.597656 7.84375 -9.171875 C 8.507812 -8.742188 8.992188 -8.203125 9.296875 -7.546875 L 9.296875 -9.671875 L 10.53125 -9.671875 L 10.53125 0 L 9.296875 0 L 9.296875 -2.140625 C 8.984375 -1.484375 8.492188 -0.9375 7.828125 -0.5 C 7.160156 -0.0703125 6.367188 0.140625 5.453125 0.140625 C 4.578125 0.140625 3.785156 -0.0625 3.078125 -0.46875 C 2.378906 -0.882812 1.832031 -1.46875 1.4375 -2.21875 C 1.039062 -2.976562 0.84375 -3.851562 0.84375 -4.84375 Z M 9.296875 -4.828125 C 9.296875 -5.609375 9.132812 -6.289062 8.8125 -6.875 C 8.5 -7.46875 8.066406 -7.925781 7.515625 -8.25 C 6.960938 -8.570312 6.359375 -8.734375 5.703125 -8.734375 C 5.015625 -8.734375 4.398438 -8.578125 3.859375 -8.265625 C 3.316406 -7.960938 2.890625 -7.515625 2.578125 -6.921875 C 2.265625 -6.335938 2.109375 -5.644531 2.109375 -4.84375 C 2.109375 -4.0625 2.265625 -3.367188 2.578125 -2.765625 C 2.890625 -2.171875 3.316406 -1.71875 3.859375 -1.40625 C 4.398438 -1.09375 5.015625 -0.9375 5.703125 -0.9375 C 6.359375 -0.9375 6.960938 -1.09375 7.515625 -1.40625 C 8.066406 -1.726562 8.5 -2.1875 8.8125 -2.78125 C 9.132812 -3.375 9.296875 -4.054688 9.296875 -4.828125 Z M 9.296875 -4.828125 "/></g></g></g><g fill="#f5f5dc" fill-opacity="1"><g transform="translate(211.840699, 139.777378)"><g><path d="M 2.65625 -13.09375 L 2.65625 0 L 1.421875 0 L 1.421875 -13.09375 Z M 2.65625 -13.09375 "/></g></g></g><g fill="#f5f5dc" fill-opacity="1"><g transform="translate(216.51464, 139.777378)"><g><path d="M 4.75 0.140625 C 3.632812 0.140625 2.722656 -0.113281 2.015625 -0.625 C 1.316406 -1.144531 0.925781 -1.84375 0.84375 -2.71875 L 2.125 -2.71875 C 2.1875 -2.175781 2.441406 -1.738281 2.890625 -1.40625 C 3.347656 -1.070312 3.960938 -0.90625 4.734375 -0.90625 C 5.398438 -0.90625 5.925781 -1.0625 6.3125 -1.375 C 6.695312 -1.695312 6.890625 -2.09375 6.890625 -2.5625 C 6.890625 -2.894531 6.78125 -3.164062 6.5625 -3.375 C 6.351562 -3.59375 6.085938 -3.765625 5.765625 -3.890625 C 5.441406 -4.015625 5 -4.144531 4.4375 -4.28125 C 3.71875 -4.46875 3.132812 -4.65625 2.6875 -4.84375 C 2.238281 -5.039062 1.859375 -5.320312 1.546875 -5.6875 C 1.234375 -6.0625 1.078125 -6.5625 1.078125 -7.1875 C 1.078125 -7.65625 1.21875 -8.085938 1.5 -8.484375 C 1.78125 -8.890625 2.179688 -9.210938 2.703125 -9.453125 C 3.222656 -9.691406 3.816406 -9.8125 4.484375 -9.8125 C 5.515625 -9.8125 6.347656 -9.546875 6.984375 -9.015625 C 7.628906 -8.492188 7.972656 -7.769531 8.015625 -6.84375 L 6.78125 -6.84375 C 6.75 -7.414062 6.523438 -7.875 6.109375 -8.21875 C 5.703125 -8.570312 5.144531 -8.75 4.4375 -8.75 C 3.8125 -8.75 3.304688 -8.597656 2.921875 -8.296875 C 2.535156 -8.003906 2.34375 -7.640625 2.34375 -7.203125 C 2.34375 -6.828125 2.457031 -6.515625 2.6875 -6.265625 C 2.914062 -6.023438 3.195312 -5.835938 3.53125 -5.703125 C 3.875 -5.566406 4.335938 -5.414062 4.921875 -5.25 C 5.617188 -5.0625 6.171875 -4.878906 6.578125 -4.703125 C 6.992188 -4.523438 7.347656 -4.265625 7.640625 -3.921875 C 7.941406 -3.585938 8.097656 -3.132812 8.109375 -2.5625 C 8.109375 -2.039062 7.96875 -1.578125 7.6875 -1.171875 C 7.40625 -0.765625 7.007812 -0.441406 6.5 -0.203125 C 5.988281 0.0234375 5.40625 0.140625 4.75 0.140625 Z M 4.75 0.140625 "/></g></g></g><g fill="#f5f5dc" fill-opacity="1"><g transform="translate(226.163289, 139.777378)"><g><path d="M 2.546875 -2.046875 L 0.703125 2.578125 L -0.140625 2.578125 L 1.171875 -2.046875 Z M 2.546875 -2.046875 "/></g></g></g><g fill="#f5f5dc" fill-opacity="1"><g transform="translate(229.845813, 139.777378)"><g/></g></g><g fill="#f5f5dc" fill-opacity="1"><g transform="translate(235.316409, 139.777378)"><g><path d="M 0.84375 -6.203125 C 0.84375 -7.410156 1.109375 -8.492188 1.640625 -9.453125 C 2.171875 -10.421875 2.894531 -11.171875 3.8125 -11.703125 C 4.738281 -12.242188 5.769531 -12.515625 6.90625 -12.515625 C 8.28125 -12.515625 9.460938 -12.1875 10.453125 -11.53125 C 11.441406 -10.875 12.160156 -9.953125 12.609375 -8.765625 L 11.15625 -8.765625 C 10.800781 -9.597656 10.257812 -10.25 9.53125 -10.71875 C 8.800781 -11.195312 7.925781 -11.4375 6.90625 -11.4375 C 6 -11.4375 5.179688 -11.222656 4.453125 -10.796875 C 3.722656 -10.367188 3.148438 -9.753906 2.734375 -8.953125 C 2.328125 -8.160156 2.125 -7.242188 2.125 -6.203125 C 2.125 -5.148438 2.328125 -4.226562 2.734375 -3.4375 C 3.148438 -2.644531 3.722656 -2.035156 4.453125 -1.609375 C 5.179688 -1.179688 6 -0.96875 6.90625 -0.96875 C 7.925781 -0.96875 8.800781 -1.203125 9.53125 -1.671875 C 10.257812 -2.140625 10.800781 -2.785156 11.15625 -3.609375 L 12.609375 -3.609375 C 12.160156 -2.429688 11.4375 -1.515625 10.4375 -0.859375 C 9.445312 -0.210938 8.269531 0.109375 6.90625 0.109375 C 5.769531 0.109375 4.738281 -0.15625 3.8125 -0.6875 C 2.894531 -1.226562 2.171875 -1.976562 1.640625 -2.9375 C 1.109375 -3.894531 0.84375 -4.984375 0.84375 -6.203125 Z M 0.84375 -6.203125 "/></g></g></g><g fill="#f5f5dc" fill-opacity="1"><g transform="translate(249.585698, 139.777378)"><g><path d="M 6.015625 -9.84375 C 6.742188 -9.84375 7.398438 -9.6875 7.984375 -9.375 C 8.578125 -9.070312 9.039062 -8.601562 9.375 -7.96875 C 9.707031 -7.34375 9.875 -6.578125 9.875 -5.671875 L 9.875 0 L 8.65625 0 L 8.65625 -5.515625 C 8.65625 -6.566406 8.390625 -7.367188 7.859375 -7.921875 C 7.335938 -8.484375 6.625 -8.765625 5.71875 -8.765625 C 4.78125 -8.765625 4.035156 -8.46875 3.484375 -7.875 C 2.929688 -7.289062 2.65625 -6.425781 2.65625 -5.28125 L 2.65625 0 L 1.421875 0 L 1.421875 -13.09375 L 2.65625 -13.09375 L 2.65625 -8.015625 C 2.957031 -8.597656 3.40625 -9.046875 4 -9.359375 C 4.601562 -9.679688 5.273438 -9.84375 6.015625 -9.84375 Z M 6.015625 -9.84375 "/></g></g></g><g fill="#f5f5dc" fill-opacity="1"><g transform="translate(261.411891, 139.777378)"><g><path d="M 5.640625 0.140625 C 4.734375 0.140625 3.914062 -0.0625 3.1875 -0.46875 C 2.46875 -0.875 1.894531 -1.453125 1.46875 -2.203125 C 1.050781 -2.953125 0.84375 -3.828125 0.84375 -4.828125 C 0.84375 -5.835938 1.054688 -6.71875 1.484375 -7.46875 C 1.910156 -8.21875 2.488281 -8.796875 3.21875 -9.203125 C 3.945312 -9.609375 4.769531 -9.8125 5.6875 -9.8125 C 6.59375 -9.8125 7.414062 -9.609375 8.15625 -9.203125 C 8.894531 -8.796875 9.472656 -8.21875 9.890625 -7.46875 C 10.304688 -6.71875 10.515625 -5.835938 10.515625 -4.828125 C 10.515625 -3.835938 10.300781 -2.960938 9.875 -2.203125 C 9.445312 -1.453125 8.863281 -0.875 8.125 -0.46875 C 7.382812 -0.0625 6.554688 0.140625 5.640625 0.140625 Z M 5.640625 -0.9375 C 6.285156 -0.9375 6.878906 -1.082031 7.421875 -1.375 C 7.960938 -1.664062 8.398438 -2.101562 8.734375 -2.6875 C 9.066406 -3.269531 9.234375 -3.984375 9.234375 -4.828125 C 9.234375 -5.679688 9.066406 -6.398438 8.734375 -6.984375 C 8.410156 -7.566406 7.976562 -8.003906 7.4375 -8.296875 C 6.894531 -8.585938 6.304688 -8.734375 5.671875 -8.734375 C 5.023438 -8.734375 4.429688 -8.585938 3.890625 -8.296875 C 3.347656 -8.003906 2.914062 -7.566406 2.59375 -6.984375 C 2.269531 -6.398438 2.109375 -5.679688 2.109375 -4.828125 C 2.109375 -3.984375 2.269531 -3.269531 2.59375 -2.6875 C 2.914062 -2.101562 3.34375 -1.664062 3.875 -1.375 C 4.414062 -1.082031 5.003906 -0.9375 5.640625 -0.9375 Z M 5.640625 -0.9375 "/></g></g></g><g fill="#f5f5dc" fill-opacity="1"><g transform="translate(273.397408, 139.777378)"><g><path d="M 4.75 0.140625 C 3.632812 0.140625 2.722656 -0.113281 2.015625 -0.625 C 1.316406 -1.144531 0.925781 -1.84375 0.84375 -2.71875 L 2.125 -2.71875 C 2.1875 -2.175781 2.441406 -1.738281 2.890625 -1.40625 C 3.347656 -1.070312 3.960938 -0.90625 4.734375 -0.90625 C 5.398438 -0.90625 5.925781 -1.0625 6.3125 -1.375 C 6.695312 -1.695312 6.890625 -2.09375 6.890625 -2.5625 C 6.890625 -2.894531 6.78125 -3.164062 6.5625 -3.375 C 6.351562 -3.59375 6.085938 -3.765625 5.765625 -3.890625 C 5.441406 -4.015625 5 -4.144531 4.4375 -4.28125 C 3.71875 -4.46875 3.132812 -4.65625 2.6875 -4.84375 C 2.238281 -5.039062 1.859375 -5.320312 1.546875 -5.6875 C 1.234375 -6.0625 1.078125 -6.5625 1.078125 -7.1875 C 1.078125 -7.65625 1.21875 -8.085938 1.5 -8.484375 C 1.78125 -8.890625 2.179688 -9.210938 2.703125 -9.453125 C 3.222656 -9.691406 3.816406 -9.8125 4.484375 -9.8125 C 5.515625 -9.8125 6.347656 -9.546875 6.984375 -9.015625 C 7.628906 -8.492188 7.972656 -7.769531 8.015625 -6.84375 L 6.78125 -6.84375 C 6.75 -7.414062 6.523438 -7.875 6.109375 -8.21875 C 5.703125 -8.570312 5.144531 -8.75 4.4375 -8.75 C 3.8125 -8.75 3.304688 -8.597656 2.921875 -8.296875 C 2.535156 -8.003906 2.34375 -7.640625 2.34375 -7.203125 C 2.34375 -6.828125 2.457031 -6.515625 2.6875 -6.265625 C 2.914062 -6.023438 3.195312 -5.835938 3.53125 -5.703125 C 3.875 -5.566406 4.335938 -5.414062 4.921875 -5.25 C 5.617188 -5.0625 6.171875 -4.878906 6.578125 -4.703125 C 6.992188 -4.523438 7.347656 -4.265625 7.640625 -3.921875 C 7.941406 -3.585938 8.097656 -3.132812 8.109375 -2.5625 C 8.109375 -2.039062 7.96875 -1.578125 7.6875 -1.171875 C 7.40625 -0.765625 7.007812 -0.441406 6.5 -0.203125 C 5.988281 0.0234375 5.40625 0.140625 4.75 0.140625 Z M 4.75 0.140625 "/></g></g></g><g fill="#f5f5dc" fill-opacity="1"><g transform="translate(283.046042, 139.777378)"><g><path d="M 10.15625 -5.328125 C 10.15625 -4.898438 10.144531 -4.578125 10.125 -4.359375 L 2.109375 -4.359375 C 2.140625 -3.617188 2.3125 -2.988281 2.625 -2.46875 C 2.945312 -1.957031 3.367188 -1.566406 3.890625 -1.296875 C 4.410156 -1.035156 4.976562 -0.90625 5.59375 -0.90625 C 6.394531 -0.90625 7.066406 -1.097656 7.609375 -1.484375 C 8.160156 -1.878906 8.523438 -2.40625 8.703125 -3.0625 L 10.015625 -3.0625 C 9.785156 -2.113281 9.28125 -1.34375 8.5 -0.75 C 7.726562 -0.15625 6.757812 0.140625 5.59375 0.140625 C 4.6875 0.140625 3.875 -0.0625 3.15625 -0.46875 C 2.4375 -0.875 1.867188 -1.453125 1.453125 -2.203125 C 1.046875 -2.953125 0.84375 -3.828125 0.84375 -4.828125 C 0.84375 -5.835938 1.039062 -6.71875 1.4375 -7.46875 C 1.84375 -8.226562 2.40625 -8.804688 3.125 -9.203125 C 3.851562 -9.609375 4.675781 -9.8125 5.59375 -9.8125 C 6.507812 -9.8125 7.3125 -9.609375 8 -9.203125 C 8.695312 -8.804688 9.226562 -8.265625 9.59375 -7.578125 C 9.96875 -6.898438 10.15625 -6.148438 10.15625 -5.328125 Z M 8.90625 -5.359375 C 8.914062 -6.078125 8.769531 -6.691406 8.46875 -7.203125 C 8.164062 -7.710938 7.753906 -8.097656 7.234375 -8.359375 C 6.722656 -8.617188 6.160156 -8.75 5.546875 -8.75 C 4.617188 -8.75 3.832031 -8.453125 3.1875 -7.859375 C 2.539062 -7.265625 2.179688 -6.429688 2.109375 -5.359375 Z M 8.90625 -5.359375 "/></g></g></g><g fill="#f5f5dc" fill-opacity="1"><g transform="translate(294.677506, 139.777378)"><g><path d="M 5.953125 -9.84375 C 7.109375 -9.84375 8.050781 -9.484375 8.78125 -8.765625 C 9.507812 -8.054688 9.875 -7.023438 9.875 -5.671875 L 9.875 0 L 8.65625 0 L 8.65625 -5.515625 C 8.65625 -6.566406 8.390625 -7.367188 7.859375 -7.921875 C 7.335938 -8.484375 6.625 -8.765625 5.71875 -8.765625 C 4.78125 -8.765625 4.035156 -8.46875 3.484375 -7.875 C 2.929688 -7.289062 2.65625 -6.425781 2.65625 -5.28125 L 2.65625 0 L 1.421875 0 L 1.421875 -9.671875 L 2.65625 -9.671875 L 2.65625 -8.015625 C 2.957031 -8.609375 3.394531 -9.0625 3.96875 -9.375 C 4.550781 -9.6875 5.210938 -9.84375 5.953125 -9.84375 Z M 5.953125 -9.84375 "/></g></g></g><g fill="#f5f5dc" fill-opacity="1"><g transform="translate(306.503714, 139.777378)"><g/></g></g><g fill="#f5f5dc" fill-opacity="1"><g transform="translate(311.974295, 139.777378)"><g><path d="M 2.640625 -7.53125 C 2.953125 -8.195312 3.441406 -8.742188 4.109375 -9.171875 C 4.773438 -9.597656 5.566406 -9.8125 6.484375 -9.8125 C 7.367188 -9.8125 8.15625 -9.609375 8.84375 -9.203125 C 9.539062 -8.796875 10.085938 -8.21875 10.484375 -7.46875 C 10.878906 -6.71875 11.078125 -5.84375 11.078125 -4.84375 C 11.078125 -3.851562 10.878906 -2.976562 10.484375 -2.21875 C 10.085938 -1.46875 9.539062 -0.882812 8.84375 -0.46875 C 8.144531 -0.0625 7.359375 0.140625 6.484375 0.140625 C 5.554688 0.140625 4.757812 -0.0664062 4.09375 -0.484375 C 3.425781 -0.898438 2.941406 -1.445312 2.640625 -2.125 L 2.640625 0 L 1.421875 0 L 1.421875 -13.09375 L 2.640625 -13.09375 Z M 9.828125 -4.84375 C 9.828125 -5.644531 9.671875 -6.335938 9.359375 -6.921875 C 9.046875 -7.515625 8.617188 -7.960938 8.078125 -8.265625 C 7.535156 -8.578125 6.921875 -8.734375 6.234375 -8.734375 C 5.566406 -8.734375 4.957031 -8.570312 4.40625 -8.25 C 3.863281 -7.925781 3.429688 -7.46875 3.109375 -6.875 C 2.796875 -6.289062 2.640625 -5.609375 2.640625 -4.828125 C 2.640625 -4.054688 2.796875 -3.375 3.109375 -2.78125 C 3.429688 -2.1875 3.863281 -1.726562 4.40625 -1.40625 C 4.957031 -1.09375 5.566406 -0.9375 6.234375 -0.9375 C 6.921875 -0.9375 7.535156 -1.09375 8.078125 -1.40625 C 8.617188 -1.71875 9.046875 -2.171875 9.359375 -2.765625 C 9.671875 -3.367188 9.828125 -4.0625 9.828125 -4.84375 Z M 9.828125 -4.84375 "/></g></g></g><g fill="#f5f5dc" fill-opacity="1"><g transform="translate(324.54403, 139.777378)"><g><path d="M 9.375 -9.671875 L 3.640625 4.546875 L 2.359375 4.546875 L 4.234375 -0.046875 L 0.265625 -9.671875 L 1.625 -9.671875 L 4.921875 -1.421875 L 8.109375 -9.671875 Z M 9.375 -9.671875 "/></g></g></g><g fill="#f5f5dc" fill-opacity="1"><g transform="translate(334.812284, 139.777378)"><g/></g></g><g fill="#f5f5dc" fill-opacity="1"><g transform="translate(340.282895, 139.777378)"><g><path d="M 5.078125 -12.375 C 6.453125 -12.375 7.628906 -12.125 8.609375 -11.625 C 9.585938 -11.132812 10.332031 -10.421875 10.84375 -9.484375 C 11.363281 -8.554688 11.625 -7.445312 11.625 -6.15625 C 11.625 -4.882812 11.363281 -3.785156 10.84375 -2.859375 C 10.332031 -1.929688 9.585938 -1.222656 8.609375 -0.734375 C 7.628906 -0.242188 6.453125 0 5.078125 0 L 1.421875 0 L 1.421875 -12.375 Z M 5.078125 -1.03125 C 6.804688 -1.03125 8.117188 -1.476562 9.015625 -2.375 C 9.921875 -3.28125 10.375 -4.539062 10.375 -6.15625 C 10.375 -7.789062 9.921875 -9.0625 9.015625 -9.96875 C 8.117188 -10.882812 6.804688 -11.34375 5.078125 -11.34375 L 2.65625 -11.34375 L 2.65625 -1.03125 Z M 5.078125 -1.03125 "/></g></g></g><g fill="#f5f5dc" fill-opacity="1"><g transform="translate(353.401444, 139.777378)"><g><path d="M 2.03125 -11.484375 C 1.789062 -11.484375 1.582031 -11.570312 1.40625 -11.75 C 1.226562 -11.925781 1.140625 -12.144531 1.140625 -12.40625 C 1.140625 -12.664062 1.226562 -12.878906 1.40625 -13.046875 C 1.582031 -13.222656 1.789062 -13.3125 2.03125 -13.3125 C 2.28125 -13.3125 2.492188 -13.222656 2.671875 -13.046875 C 2.847656 -12.878906 2.9375 -12.664062 2.9375 -12.40625 C 2.9375 -12.144531 2.847656 -11.925781 2.671875 -11.75 C 2.492188 -11.570312 2.28125 -11.484375 2.03125 -11.484375 Z M 2.65625 -9.671875 L 2.65625 0 L 1.421875 0 L 1.421875 -9.671875 Z M 2.65625 -9.671875 "/></g></g></g><g fill="#f5f5dc" fill-opacity="1"><g transform="translate(358.075399, 139.777378)"><g><path d="M 4.75 0.140625 C 3.632812 0.140625 2.722656 -0.113281 2.015625 -0.625 C 1.316406 -1.144531 0.925781 -1.84375 0.84375 -2.71875 L 2.125 -2.71875 C 2.1875 -2.175781 2.441406 -1.738281 2.890625 -1.40625 C 3.347656 -1.070312 3.960938 -0.90625 4.734375 -0.90625 C 5.398438 -0.90625 5.925781 -1.0625 6.3125 -1.375 C 6.695312 -1.695312 6.890625 -2.09375 6.890625 -2.5625 C 6.890625 -2.894531 6.78125 -3.164062 6.5625 -3.375 C 6.351562 -3.59375 6.085938 -3.765625 5.765625 -3.890625 C 5.441406 -4.015625 5 -4.144531 4.4375 -4.28125 C 3.71875 -4.46875 3.132812 -4.65625 2.6875 -4.84375 C 2.238281 -5.039062 1.859375 -5.320312 1.546875 -5.6875 C 1.234375 -6.0625 1.078125 -6.5625 1.078125 -7.1875 C 1.078125 -7.65625 1.21875 -8.085938 1.5 -8.484375 C 1.78125 -8.890625 2.179688 -9.210938 2.703125 -9.453125 C 3.222656 -9.691406 3.816406 -9.8125 4.484375 -9.8125 C 5.515625 -9.8125 6.347656 -9.546875 6.984375 -9.015625 C 7.628906 -8.492188 7.972656 -7.769531 8.015625 -6.84375 L 6.78125 -6.84375 C 6.75 -7.414062 6.523438 -7.875 6.109375 -8.21875 C 5.703125 -8.570312 5.144531 -8.75 4.4375 -8.75 C 3.8125 -8.75 3.304688 -8.597656 2.921875 -8.296875 C 2.535156 -8.003906 2.34375 -7.640625 2.34375 -7.203125 C 2.34375 -6.828125 2.457031 -6.515625 2.6875 -6.265625 C 2.914062 -6.023438 3.195312 -5.835938 3.53125 -5.703125 C 3.875 -5.566406 4.335938 -5.414062 4.921875 -5.25 C 5.617188 -5.0625 6.171875 -4.878906 6.578125 -4.703125 C 6.992188 -4.523438 7.347656 -4.265625 7.640625 -3.921875 C 7.941406 -3.585938 8.097656 -3.132812 8.109375 -2.5625 C 8.109375 -2.039062 7.96875 -1.578125 7.6875 -1.171875 C 7.40625 -0.765625 7.007812 -0.441406 6.5 -0.203125 C 5.988281 0.0234375 5.40625 0.140625 4.75 0.140625 Z M 4.75 0.140625 "/></g></g></g><g fill="#f5f5dc" fill-opacity="1"><g transform="translate(367.724033, 139.777378)"><g><path d="M 3.03125 -8.625 L 3.03125 -2.625 C 3.03125 -2.03125 3.140625 -1.617188 3.359375 -1.390625 C 3.585938 -1.171875 3.984375 -1.0625 4.546875 -1.0625 L 5.6875 -1.0625 L 5.6875 0 L 4.359375 0 C 3.484375 0 2.832031 -0.203125 2.40625 -0.609375 C 1.976562 -1.015625 1.765625 -1.6875 1.765625 -2.625 L 1.765625 -8.625 L 0.421875 -8.625 L 0.421875 -9.671875 L 1.765625 -9.671875 L 1.765625 -12.09375 L 3.03125 -12.09375 L 3.03125 -9.671875 L 5.6875 -9.671875 L 5.6875 -8.625 Z M 3.03125 -8.625 "/></g></g></g><g fill="#f5f5dc" fill-opacity="1"><g transform="translate(374.646309, 139.777378)"><g><path d="M 2.65625 -7.953125 C 2.925781 -8.546875 3.34375 -9.007812 3.90625 -9.34375 C 4.46875 -9.675781 5.15625 -9.84375 5.96875 -9.84375 L 5.96875 -8.546875 L 5.625 -8.546875 C 4.726562 -8.546875 4.007812 -8.300781 3.46875 -7.8125 C 2.925781 -7.332031 2.65625 -6.53125 2.65625 -5.40625 L 2.65625 0 L 1.421875 0 L 1.421875 -9.671875 L 2.65625 -9.671875 Z M 2.65625 -7.953125 "/></g></g></g><g fill="#f5f5dc" fill-opacity="1"><g transform="translate(381.674843, 139.777378)"><g><path d="M 2.03125 -11.484375 C 1.789062 -11.484375 1.582031 -11.570312 1.40625 -11.75 C 1.226562 -11.925781 1.140625 -12.144531 1.140625 -12.40625 C 1.140625 -12.664062 1.226562 -12.878906 1.40625 -13.046875 C 1.582031 -13.222656 1.789062 -13.3125 2.03125 -13.3125 C 2.28125 -13.3125 2.492188 -13.222656 2.671875 -13.046875 C 2.847656 -12.878906 2.9375 -12.664062 2.9375 -12.40625 C 2.9375 -12.144531 2.847656 -11.925781 2.671875 -11.75 C 2.492188 -11.570312 2.28125 -11.484375 2.03125 -11.484375 Z M 2.65625 -9.671875 L 2.65625 0 L 1.421875 0 L 1.421875 -9.671875 Z M 2.65625 -9.671875 "/></g></g></g><g fill="#f5f5dc" fill-opacity="1"><g transform="translate(386.348799, 139.777378)"><g><path d="M 2.640625 -7.53125 C 2.953125 -8.195312 3.441406 -8.742188 4.109375 -9.171875 C 4.773438 -9.597656 5.566406 -9.8125 6.484375 -9.8125 C 7.367188 -9.8125 8.15625 -9.609375 8.84375 -9.203125 C 9.539062 -8.796875 10.085938 -8.21875 10.484375 -7.46875 C 10.878906 -6.71875 11.078125 -5.84375 11.078125 -4.84375 C 11.078125 -3.851562 10.878906 -2.976562 10.484375 -2.21875 C 10.085938 -1.46875 9.539062 -0.882812 8.84375 -0.46875 C 8.144531 -0.0625 7.359375 0.140625 6.484375 0.140625 C 5.554688 0.140625 4.757812 -0.0664062 4.09375 -0.484375 C 3.425781 -0.898438 2.941406 -1.445312 2.640625 -2.125 L 2.640625 0 L 1.421875 0 L 1.421875 -13.09375 L 2.640625 -13.09375 Z M 9.828125 -4.84375 C 9.828125 -5.644531 9.671875 -6.335938 9.359375 -6.921875 C 9.046875 -7.515625 8.617188 -7.960938 8.078125 -8.265625 C 7.535156 -8.578125 6.921875 -8.734375 6.234375 -8.734375 C 5.566406 -8.734375 4.957031 -8.570312 4.40625 -8.25 C 3.863281 -7.925781 3.429688 -7.46875 3.109375 -6.875 C 2.796875 -6.289062 2.640625 -5.609375 2.640625 -4.828125 C 2.640625 -4.054688 2.796875 -3.375 3.109375 -2.78125 C 3.429688 -2.1875 3.863281 -1.726562 4.40625 -1.40625 C 4.957031 -1.09375 5.566406 -0.9375 6.234375 -0.9375 C 6.921875 -0.9375 7.535156 -1.09375 8.078125 -1.40625 C 8.617188 -1.71875 9.046875 -2.171875 9.359375 -2.765625 C 9.671875 -3.367188 9.828125 -4.0625 9.828125 -4.84375 Z M 9.828125 -4.84375 "/></g></g></g><g fill="#f5f5dc" fill-opacity="1"><g transform="translate(398.918503, 139.777378)"><g><path d="M 9.796875 -9.671875 L 9.796875 0 L 8.546875 0 L 8.546875 -1.703125 C 8.265625 -1.097656 7.828125 -0.632812 7.234375 -0.3125 C 6.648438 0 5.988281 0.15625 5.25 0.15625 C 4.09375 0.15625 3.148438 -0.195312 2.421875 -0.90625 C 1.691406 -1.625 1.328125 -2.660156 1.328125 -4.015625 L 1.328125 -9.671875 L 2.546875 -9.671875 L 2.546875 -4.15625 C 2.546875 -3.101562 2.804688 -2.300781 3.328125 -1.75 C 3.859375 -1.195312 4.578125 -0.921875 5.484375 -0.921875 C 6.421875 -0.921875 7.164062 -1.210938 7.71875 -1.796875 C 8.269531 -2.390625 8.546875 -3.257812 8.546875 -4.40625 L 8.546875 -9.671875 Z M 9.796875 -9.671875 "/></g></g></g><g fill="#f5f5dc" fill-opacity="1"><g transform="translate(410.744711, 139.777378)"><g><path d="M 3.03125 -8.625 L 3.03125 -2.625 C 3.03125 -2.03125 3.140625 -1.617188 3.359375 -1.390625 C 3.585938 -1.171875 3.984375 -1.0625 4.546875 -1.0625 L 5.6875 -1.0625 L 5.6875 0 L 4.359375 0 C 3.484375 0 2.832031 -0.203125 2.40625 -0.609375 C 1.976562 -1.015625 1.765625 -1.6875 1.765625 -2.625 L 1.765625 -8.625 L 0.421875 -8.625 L 0.421875 -9.671875 L 1.765625 -9.671875 L 1.765625 -12.09375 L 3.03125 -12.09375 L 3.03125 -9.671875 L 5.6875 -9.671875 L 5.6875 -8.625 Z M 3.03125 -8.625 "/></g></g></g><g fill="#f5f5dc" fill-opacity="1"><g transform="translate(417.667018, 139.777378)"><g><path d="M 10.15625 -5.328125 C 10.15625 -4.898438 10.144531 -4.578125 10.125 -4.359375 L 2.109375 -4.359375 C 2.140625 -3.617188 2.3125 -2.988281 2.625 -2.46875 C 2.945312 -1.957031 3.367188 -1.566406 3.890625 -1.296875 C 4.410156 -1.035156 4.976562 -0.90625 5.59375 -0.90625 C 6.394531 -0.90625 7.066406 -1.097656 7.609375 -1.484375 C 8.160156 -1.878906 8.523438 -2.40625 8.703125 -3.0625 L 10.015625 -3.0625 C 9.785156 -2.113281 9.28125 -1.34375 8.5 -0.75 C 7.726562 -0.15625 6.757812 0.140625 5.59375 0.140625 C 4.6875 0.140625 3.875 -0.0625 3.15625 -0.46875 C 2.4375 -0.875 1.867188 -1.453125 1.453125 -2.203125 C 1.046875 -2.953125 0.84375 -3.828125 0.84375 -4.828125 C 0.84375 -5.835938 1.039062 -6.71875 1.4375 -7.46875 C 1.84375 -8.226562 2.40625 -8.804688 3.125 -9.203125 C 3.851562 -9.609375 4.675781 -9.8125 5.59375 -9.8125 C 6.507812 -9.8125 7.3125 -9.609375 8 -9.203125 C 8.695312 -8.804688 9.226562 -8.265625 9.59375 -7.578125 C 9.96875 -6.898438 10.15625 -6.148438 10.15625 -5.328125 Z M 8.90625 -5.359375 C 8.914062 -6.078125 8.769531 -6.691406 8.46875 -7.203125 C 8.164062 -7.710938 7.753906 -8.097656 7.234375 -8.359375 C 6.722656 -8.617188 6.160156 -8.75 5.546875 -8.75 C 4.617188 -8.75 3.832031 -8.453125 3.1875 -7.859375 C 2.539062 -7.265625 2.179688 -6.429688 2.109375 -5.359375 Z M 8.90625 -5.359375 "/></g></g></g><g fill="#f5f5dc" fill-opacity="1"><g transform="translate(429.298451, 139.777378)"><g><path d="M 2.65625 -7.953125 C 2.925781 -8.546875 3.34375 -9.007812 3.90625 -9.34375 C 4.46875 -9.675781 5.15625 -9.84375 5.96875 -9.84375 L 5.96875 -8.546875 L 5.625 -8.546875 C 4.726562 -8.546875 4.007812 -8.300781 3.46875 -7.8125 C 2.925781 -7.332031 2.65625 -6.53125 2.65625 -5.40625 L 2.65625 0 L 1.421875 0 L 1.421875 -9.671875 L 2.65625 -9.671875 Z M 2.65625 -7.953125 "/></g></g></g><g fill="#f5f5dc" fill-opacity="1"><g transform="translate(436.326986, 139.777378)"><g><path d="M 4.75 0.140625 C 3.632812 0.140625 2.722656 -0.113281 2.015625 -0.625 C 1.316406 -1.144531 0.925781 -1.84375 0.84375 -2.71875 L 2.125 -2.71875 C 2.1875 -2.175781 2.441406 -1.738281 2.890625 -1.40625 C 3.347656 -1.070312 3.960938 -0.90625 4.734375 -0.90625 C 5.398438 -0.90625 5.925781 -1.0625 6.3125 -1.375 C 6.695312 -1.695312 6.890625 -2.09375 6.890625 -2.5625 C 6.890625 -2.894531 6.78125 -3.164062 6.5625 -3.375 C 6.351562 -3.59375 6.085938 -3.765625 5.765625 -3.890625 C 5.441406 -4.015625 5 -4.144531 4.4375 -4.28125 C 3.71875 -4.46875 3.132812 -4.65625 2.6875 -4.84375 C 2.238281 -5.039062 1.859375 -5.320312 1.546875 -5.6875 C 1.234375 -6.0625 1.078125 -6.5625 1.078125 -7.1875 C 1.078125 -7.65625 1.21875 -8.085938 1.5 -8.484375 C 1.78125 -8.890625 2.179688 -9.210938 2.703125 -9.453125 C 3.222656 -9.691406 3.816406 -9.8125 4.484375 -9.8125 C 5.515625 -9.8125 6.347656 -9.546875 6.984375 -9.015625 C 7.628906 -8.492188 7.972656 -7.769531 8.015625 -6.84375 L 6.78125 -6.84375 C 6.75 -7.414062 6.523438 -7.875 6.109375 -8.21875 C 5.703125 -8.570312 5.144531 -8.75 4.4375 -8.75 C 3.8125 -8.75 3.304688 -8.597656 2.921875 -8.296875 C 2.535156 -8.003906 2.34375 -7.640625 2.34375 -7.203125 C 2.34375 -6.828125 2.457031 -6.515625 2.6875 -6.265625 C 2.914062 -6.023438 3.195312 -5.835938 3.53125 -5.703125 C 3.875 -5.566406 4.335938 -5.414062 4.921875 -5.25 C 5.617188 -5.0625 6.171875 -4.878906 6.578125 -4.703125 C 6.992188 -4.523438 7.347656 -4.265625 7.640625 -3.921875 C 7.941406 -3.585938 8.097656 -3.132812 8.109375 -2.5625 C 8.109375 -2.039062 7.96875 -1.578125 7.6875 -1.171875 C 7.40625 -0.765625 7.007812 -0.441406 6.5 -0.203125 C 5.988281 0.0234375 5.40625 0.140625 4.75 0.140625 Z M 4.75 0.140625 "/></g></g></g><g fill="#f5f5dc" fill-opacity="1"><g transform="translate(445.987067, 139.777378)"><g/></g></g><path fill="#f5f5dc" d="M 428.554688 92.382812 C 432.628906 92.382812 435.929688 95.683594 435.929688 99.757812 C 435.929688 103.832031 432.628906 107.132812 428.554688 107.132812 C 424.484375 107.132812 421.179688 103.832031 421.179688 99.757812 C 421.179688 95.683594 424.484375 92.382812 428.554688 92.382812 M 428.554688 92.886719 C 427.628906 92.886719 426.726562 93.070312 425.882812 93.425781 C 425.0625 93.773438 424.328125 94.269531 423.695312 94.898438 C 423.066406 95.53125 422.570312 96.265625 422.226562 97.085938 C 421.867188 97.929688 421.683594 98.832031 421.683594 99.757812 C 421.683594 100.6875 421.867188 101.585938 422.226562 102.433594 C 422.570312 103.25 423.066406 103.984375 423.695312 104.617188 C 424.328125 105.246094 425.0625 105.742188 425.882812 106.089844 C 426.726562 106.445312 427.628906 106.628906 428.554688 106.628906 C 429.484375 106.628906 430.382812 106.445312 431.230469 106.089844 C 432.046875 105.742188 432.78125 105.246094 433.414062 104.617188 C 434.042969 103.984375 434.539062 103.25 434.886719 102.433594 C 435.242188 101.585938 435.425781 100.6875 435.425781 99.757812 C 435.425781 98.832031 435.242188 97.929688 434.886719 97.085938 C 434.539062 96.265625 434.042969 95.53125 433.414062 94.898438 C 432.78125 94.269531 432.046875 93.773438 431.230469 93.425781 C 430.382812 93.070312 429.484375 92.886719 428.554688 92.886719 Z M 428.554688 92.886719 " fill-opacity="1" fill-rule="nonzero"/><path fill="#f5f5dc" d="M 424.835938 97.453125 L 423.035156 97.453125 L 423.035156 96.800781 L 427.414062 96.800781 L 427.414062 97.453125 L 425.605469 97.453125 L 425.605469 102.777344 L 424.835938 102.777344 Z M 424.835938 97.453125 " fill-opacity="1" fill-rule="nonzero"/><path fill="#f5f5dc" d="M 433.050781 100.117188 C 433.007812 99.292969 432.957031 98.292969 432.957031 97.566406 L 432.9375 97.566406 C 432.726562 98.25 432.492188 98.996094 432.191406 99.8125 L 431.148438 102.742188 L 430.570312 102.742188 L 429.605469 99.863281 C 429.324219 99.019531 429.097656 98.265625 428.929688 97.566406 L 428.914062 97.566406 C 428.894531 98.300781 428.851562 99.285156 428.800781 100.179688 L 428.640625 102.777344 L 427.914062 102.777344 L 428.324219 96.800781 L 429.296875 96.800781 L 430.308594 99.660156 C 430.554688 100.390625 430.746094 101.101562 430.902344 101.714844 L 430.921875 101.714844 C 431.078125 101.117188 431.289062 100.40625 431.550781 99.660156 L 432.605469 96.800781 L 433.578125 96.800781 L 433.945312 102.777344 L 433.191406 102.777344 Z M 433.050781 100.117188 " fill-opacity="1" fill-rule="nonzero"/></g></g></svg>